<?xml version="1.0" encoding="UTF-8" ?>
<!DOCTYPE svg PUBLIC "-//W3C//DTD SVG 1.1//EN" "http://www.w3.org/Graphics/SVG/1.1/DTD/svg11.dtd">
<svg width="875pt" height="500pt" viewBox="0 0 875 500" version="1.1" xmlns="http://www.w3.org/2000/svg">
<g id="#e7cae3ff">
<path fill="#e7cae3" opacity="1.00" d=" M 0.00 0.00 L 875.00 0.00 L 875.00 500.00 L 705.92 500.00 C 705.86 494.61 706.42 489.18 705.50 483.84 C 704.17 474.09 698.45 465.35 691.32 458.78 C 687.48 453.93 683.08 449.52 678.23 445.68 C 677.20 444.76 676.17 443.85 675.14 442.96 C 673.01 440.67 670.69 438.58 668.22 436.68 C 641.43 410.78 618.89 378.62 609.93 342.06 C 620.14 344.84 632.96 345.29 640.29 336.26 C 645.75 329.83 647.41 316.80 638.43 312.73 C 646.03 322.99 632.86 332.77 624.09 324.80 C 622.57 323.29 620.90 321.93 619.08 320.80 C 617.68 319.51 616.35 318.17 615.07 316.78 C 614.16 312.84 613.48 308.83 612.07 305.03 C 609.34 266.42 617.85 228.37 620.99 190.08 L 621.63 190.39 C 630.31 197.75 644.14 198.59 652.95 191.03 C 658.23 186.64 662.41 180.60 664.11 173.90 C 661.28 178.71 658.23 183.65 653.13 186.36 C 652.12 186.93 651.11 187.47 650.08 187.99 C 644.01 189.89 637.64 190.81 631.30 189.86 C 628.13 188.89 625.02 187.77 621.87 186.78 C 619.82 182.03 621.42 176.67 620.20 171.71 C 619.82 163.69 618.18 155.77 616.14 148.02 C 615.80 143.84 614.87 139.70 613.01 135.92 C 606.56 115.37 596.84 95.77 583.08 79.11 C 581.97 76.56 580.13 74.51 577.77 73.07 C 575.41 70.86 573.13 68.58 570.92 66.23 C 569.45 63.91 567.42 62.06 564.90 60.93 C 554.04 52.25 541.84 45.52 529.13 39.97 C 524.41 37.28 519.18 35.62 513.81 34.94 C 508.37 33.80 502.90 32.82 497.41 31.94 C 487.34 30.35 476.67 30.35 466.60 31.93 C 460.47 33.00 454.32 33.91 448.20 34.97 C 438.77 36.13 429.44 38.93 420.85 42.97 C 416.29 45.01 411.75 47.13 407.07 48.91 C 404.02 49.57 401.16 50.87 398.79 52.92 C 389.96 58.21 381.25 63.67 373.08 69.92 C 370.17 71.33 367.77 73.49 366.05 76.22 C 363.83 78.64 361.57 81.06 358.91 83.01 C 356.65 84.48 355.15 86.74 353.89 89.07 C 346.69 97.68 340.92 107.32 334.91 116.76 C 331.78 121.11 329.27 125.94 327.93 131.15 C 325.21 138.33 322.39 145.56 318.22 152.04 C 316.20 153.46 314.46 155.22 313.07 157.26 C 312.11 157.91 311.14 158.54 310.16 159.15 C 306.70 159.70 303.19 159.72 299.74 159.22 C 298.14 157.75 297.34 155.69 296.54 153.73 C 296.58 153.26 296.67 152.31 296.71 151.84 C 291.40 159.72 299.74 171.32 308.98 171.03 C 316.19 172.50 322.86 168.18 329.12 166.49 C 328.59 168.52 328.10 170.56 327.77 172.64 C 321.84 222.49 326.21 274.49 308.21 322.30 C 288.50 350.79 265.09 379.88 231.87 392.86 C 219.34 397.92 209.01 386.70 200.99 378.72 C 200.43 377.79 199.86 376.87 199.27 375.97 C 195.12 368.12 195.13 358.93 198.94 350.96 C 197.52 352.08 196.13 353.25 194.90 354.59 C 191.78 358.10 189.38 362.23 187.79 366.66 C 178.28 386.74 188.70 411.92 207.66 422.34 C 219.58 429.29 233.10 433.98 246.99 434.30 C 225.34 454.53 193.52 469.20 185.59 500.00 L 0.00 500.00 L 0.00 0.00 Z" />
<path fill="#e7cae3" opacity="1.00" d=" M 448.81 245.23 C 437.52 233.53 455.22 227.15 464.90 226.06 C 464.32 227.52 463.76 228.99 463.23 230.46 C 456.10 232.08 446.15 235.95 448.81 245.23 Z" />
<path fill="#e7cae3" opacity="1.00" d=" M 660.96 464.69 C 678.15 472.13 694.93 483.34 704.36 500.00 L 692.31 500.00 C 688.71 495.55 685.54 490.73 681.30 486.84 C 678.01 482.43 674.15 478.49 670.03 474.85 C 667.77 471.85 665.07 469.18 661.89 467.17 C 661.66 466.55 661.19 465.31 660.96 464.69 Z" />
</g>
<g id="#896178ff">
<path fill="#896178" opacity="1.00" d=" M 466.60 31.93 C 476.67 30.35 487.34 30.35 497.41 31.94 C 487.14 32.18 476.87 32.03 466.60 31.93 Z" />
<path fill="#896178" opacity="1.00" d=" M 413.00 260.92 L 413.94 260.98 C 414.03 264.11 414.07 267.25 413.63 270.36 C 412.07 267.46 413.13 264.04 413.00 260.92 Z" />
<path fill="#896178" opacity="1.00" d=" M 452.94 381.03 C 463.03 382.38 473.17 381.12 483.08 379.17 C 482.29 382.67 480.64 386.79 482.50 390.16 C 482.28 391.04 482.06 391.92 481.84 392.80 L 481.44 393.46 C 481.33 392.89 481.11 391.75 481.00 391.17 C 468.63 393.86 455.70 395.13 443.19 392.63 C 441.06 392.25 438.95 391.82 436.86 391.31 C 443.37 391.95 447.35 385.10 451.29 380.87 C 451.70 380.91 452.53 380.99 452.94 381.03 Z" />
</g>
<g id="#fce9afff">
<path fill="#fce9af" opacity="1.00" d=" M 448.20 34.97 C 454.32 33.91 460.47 33.00 466.60 31.93 C 476.87 32.03 487.14 32.18 497.41 31.94 C 502.90 32.82 508.37 33.80 513.81 34.94 C 518.77 37.01 523.87 38.76 529.13 39.97 C 541.84 45.52 554.04 52.25 564.90 60.93 C 566.67 62.95 568.69 64.73 570.92 66.23 C 573.13 68.58 575.41 70.86 577.77 73.07 C 579.28 75.29 581.05 77.33 583.08 79.11 C 596.84 95.77 606.56 115.37 613.01 135.92 C 613.68 139.76 614.33 143.63 615.64 147.33 C 615.46 154.85 618.88 162.07 617.67 169.65 C 615.58 171.04 613.14 171.67 610.74 172.28 C 609.83 166.79 609.74 161.04 607.23 155.96 C 608.40 161.90 609.69 167.87 609.30 173.97 C 606.53 175.30 603.80 176.72 601.07 178.12 C 601.11 174.97 600.85 171.83 600.37 168.72 C 599.68 184.52 600.38 200.44 596.62 215.96 C 594.70 194.42 590.43 171.66 577.97 153.76 C 578.45 158.37 580.00 162.78 580.71 167.35 C 581.11 172.19 581.36 177.03 581.24 181.89 C 578.57 181.14 575.91 180.40 573.25 179.69 C 572.79 163.67 573.72 147.46 570.17 131.71 C 571.37 147.51 573.77 163.45 571.30 179.30 C 569.88 179.18 568.47 179.09 567.07 179.01 C 564.73 165.70 560.61 152.33 553.20 140.94 C 551.87 129.82 551.12 118.38 547.05 107.84 C 552.27 131.34 553.96 155.78 551.05 179.71 C 549.82 179.92 548.60 180.13 547.38 180.36 C 546.13 166.52 544.66 151.53 536.24 139.97 C 538.12 147.54 540.10 155.09 541.48 162.78 C 532.13 168.46 517.49 164.14 506.17 163.88 C 505.06 162.49 503.76 161.19 502.01 160.71 C 498.50 166.87 500.62 174.30 500.72 181.00 C 495.42 166.98 490.25 152.61 488.38 137.67 C 482.10 151.59 482.29 167.80 481.95 182.87 C 481.48 182.87 480.55 182.87 480.08 182.87 C 473.08 157.53 470.79 130.68 475.97 104.78 C 458.80 127.58 467.41 159.02 460.43 185.31 C 457.50 185.72 454.62 186.51 451.97 187.84 C 451.51 187.85 450.60 187.88 450.15 187.89 C 448.62 180.82 446.70 173.85 445.69 166.68 C 441.42 173.90 442.95 183.12 442.08 191.24 L 441.40 191.56 C 440.88 191.53 439.85 191.47 439.33 191.44 C 435.40 176.82 435.83 161.71 435.69 146.73 C 434.76 150.99 434.18 155.32 434.17 159.68 C 433.96 163.08 433.53 166.47 433.16 169.86 C 427.89 175.99 426.72 184.43 425.35 192.13 C 421.04 182.26 419.94 171.35 419.71 160.68 C 419.27 161.79 418.83 162.90 418.48 164.04 C 417.91 165.69 417.42 167.37 416.96 169.06 C 415.80 171.38 414.28 173.49 412.63 175.48 C 405.42 176.45 396.15 180.74 389.94 176.00 C 388.77 164.06 394.35 152.41 396.09 140.66 C 389.44 150.90 390.11 163.93 386.10 175.12 C 386.33 175.62 386.78 176.63 387.01 177.14 C 379.70 178.53 372.20 177.62 364.81 177.72 C 365.49 172.51 366.23 167.31 367.26 162.16 C 370.98 142.64 377.83 123.58 390.17 107.84 C 367.40 120.56 364.67 151.00 359.06 174.12 C 353.33 176.05 344.30 175.13 345.34 167.06 C 348.23 142.59 354.24 116.69 371.04 97.80 C 349.90 112.35 347.27 141.48 343.71 164.94 C 344.67 172.90 334.81 175.81 329.07 172.36 C 329.39 170.59 329.67 168.81 329.83 167.01 C 330.06 164.71 330.43 162.42 330.95 160.17 C 323.05 173.28 293.55 173.21 296.54 153.73 C 297.34 155.69 298.14 157.75 299.74 159.22 C 302.79 161.45 307.10 161.39 310.16 159.15 C 311.14 158.54 312.11 157.91 313.07 157.26 C 315.25 156.03 317.02 154.24 318.22 152.04 C 322.39 145.56 325.21 138.33 327.93 131.15 C 330.65 126.55 333.15 121.82 334.91 116.76 C 340.92 107.32 346.69 97.68 353.89 89.07 C 355.33 87.02 359.12 85.39 358.91 83.01 C 361.57 81.06 363.83 78.64 366.05 76.22 C 368.70 74.48 371.03 72.34 373.08 69.92 C 381.25 63.67 389.96 58.21 398.79 52.92 C 401.71 51.94 404.49 50.59 407.07 48.91 C 411.75 47.13 416.29 45.01 420.85 42.97 C 430.02 40.52 439.07 37.60 448.20 34.97 M 542.09 95.03 C 542.84 98.55 544.32 101.87 545.91 105.09 C 545.41 101.49 543.97 98.11 542.09 95.03 M 516.25 105.00 C 518.49 114.10 517.07 124.56 521.29 132.83 C 521.89 132.83 523.09 132.81 523.69 132.81 C 528.01 124.18 525.06 109.87 516.25 105.00 M 577.11 112.99 C 579.81 122.48 578.65 133.58 583.50 142.11 C 585.82 132.47 584.91 119.90 577.11 112.99 M 382.29 148.12 C 388.91 138.30 390.89 126.22 396.74 115.96 C 385.75 121.50 381.20 136.43 382.29 148.12 Z" />
</g>
<g id="#503148ff">
<path fill="#503148" opacity="1.00" d=" M 420.85 42.97 C 429.44 38.93 438.77 36.13 448.20 34.97 C 439.07 37.60 430.02 40.52 420.85 42.97 Z" />
<path fill="#503148" opacity="1.00" d=" M 513.81 34.94 C 519.18 35.62 524.41 37.28 529.13 39.97 C 523.87 38.76 518.77 37.01 513.81 34.94 Z" />
<path fill="#503148" opacity="1.00" d=" M 398.79 52.92 C 401.16 50.87 404.02 49.57 407.07 48.91 C 404.49 50.59 401.71 51.94 398.79 52.92 Z" />
<path fill="#503148" opacity="1.00" d=" M 564.90 60.93 C 567.42 62.06 569.45 63.91 570.92 66.23 C 568.69 64.73 566.67 62.95 564.90 60.93 Z" />
<path fill="#503148" opacity="1.00" d=" M 366.05 76.22 C 367.77 73.49 370.17 71.33 373.08 69.92 C 371.03 72.34 368.70 74.48 366.05 76.22 Z" />
<path fill="#503148" opacity="1.00" d=" M 577.77 73.07 C 580.13 74.51 581.97 76.56 583.08 79.11 C 581.05 77.33 579.28 75.29 577.77 73.07 Z" />
<path fill="#503148" opacity="1.00" d=" M 353.89 89.07 C 355.15 86.74 356.65 84.48 358.91 83.01 C 359.12 85.39 355.33 87.02 353.89 89.07 Z" />
<path fill="#503148" opacity="1.00" d=" M 542.09 95.03 C 543.97 98.11 545.41 101.49 545.91 105.09 C 544.32 101.87 542.84 98.55 542.09 95.03 Z" />
<path fill="#503148" opacity="1.00" d=" M 327.93 131.15 C 329.27 125.94 331.78 121.11 334.91 116.76 C 333.15 121.82 330.65 126.55 327.93 131.15 Z" />
<path fill="#503148" opacity="1.00" d=" M 613.01 135.92 C 614.87 139.70 615.80 143.84 616.14 148.02 L 615.64 147.33 C 614.33 143.63 613.68 139.76 613.01 135.92 Z" />
<path fill="#503148" opacity="1.00" d=" M 308.98 171.03 C 299.74 171.32 291.40 159.72 296.71 151.84 C 296.67 152.31 296.58 153.26 296.54 153.73 C 293.55 173.21 323.05 173.28 330.95 160.17 C 330.43 162.42 330.06 164.71 329.83 167.01 L 329.12 166.49 C 322.86 168.18 316.19 172.50 308.98 171.03 Z" />
<path fill="#503148" opacity="1.00" d=" M 313.07 157.26 C 314.46 155.22 316.20 153.46 318.22 152.04 C 317.02 154.24 315.25 156.03 313.07 157.26 Z" />
<path fill="#503148" opacity="1.00" d=" M 607.23 155.96 C 609.74 161.04 609.83 166.79 610.74 172.28 C 610.73 183.86 609.79 196.33 603.14 206.21 C 607.46 196.02 610.45 185.15 609.30 173.97 C 609.69 167.87 608.40 161.90 607.23 155.96 Z" />
<path fill="#503148" opacity="1.00" d=" M 299.74 159.22 C 303.19 159.72 306.70 159.70 310.16 159.15 C 307.10 161.39 302.79 161.45 299.74 159.22 Z" />
<path fill="#503148" opacity="1.00" d=" M 353.24 236.20 C 361.28 211.39 360.30 184.74 366.89 159.63 C 366.98 160.26 367.16 161.53 367.26 162.16 C 366.23 167.31 365.49 172.51 364.81 177.72 C 361.69 199.38 360.76 221.60 353.42 242.41 C 350.87 249.01 347.71 258.46 339.03 258.02 C 341.64 256.77 344.12 255.24 346.06 253.07 C 340.73 254.64 335.08 253.99 330.96 250.02 C 331.85 268.32 353.36 276.29 367.06 265.08 C 368.68 264.56 370.35 264.22 372.02 263.89 C 370.50 265.51 368.95 267.10 367.43 268.73 C 367.12 268.61 366.49 268.39 366.18 268.28 C 362.80 269.55 359.41 270.83 355.94 271.83 C 347.99 273.39 339.12 270.96 334.67 263.81 C 331.66 259.37 330.11 254.15 329.38 248.89 C 328.87 244.11 328.42 239.20 329.81 234.52 C 329.73 241.67 331.10 252.02 340.14 252.64 C 349.14 253.16 351.31 242.93 353.24 236.20 Z" />
<path fill="#503148" opacity="1.00" d=" M 418.48 164.04 C 414.92 186.90 417.51 210.02 423.14 232.33 L 422.35 231.71 C 416.37 211.45 414.04 190.06 416.96 169.06 C 417.42 167.37 417.91 165.69 418.48 164.04 Z" />
<path fill="#503148" opacity="1.00" d=" M 620.20 171.71 C 621.42 176.67 619.82 182.03 621.87 186.78 C 621.15 187.89 621.45 189.17 621.63 190.39 L 620.99 190.08 C 617.85 228.37 609.34 266.42 612.07 305.03 C 606.70 266.42 618.27 227.84 619.72 189.27 C 618.66 186.31 616.04 184.09 614.93 181.09 C 616.49 182.45 618.01 183.87 619.53 185.30 C 620.25 180.80 619.96 176.24 620.20 171.71 Z" />
<path fill="#503148" opacity="1.00" d=" M 308.21 322.30 C 326.21 274.49 321.84 222.49 327.77 172.64 C 325.78 206.32 326.88 240.34 321.66 273.78 C 319.54 286.95 316.97 300.03 314.01 313.03 C 318.02 307.31 319.95 300.40 324.17 294.85 L 324.26 296.04 C 313.27 322.08 295.58 344.85 275.93 364.93 C 262.88 378.14 247.58 390.04 229.62 395.53 C 217.91 397.45 202.94 395.72 195.74 385.14 C 201.50 390.53 209.10 393.75 216.99 394.03 C 211.05 389.79 203.60 385.97 200.99 378.72 C 209.01 386.70 219.34 397.92 231.87 392.86 C 265.09 379.88 288.50 350.79 308.21 322.30 Z" />
<path fill="#503148" opacity="1.00" d=" M 653.13 186.36 C 658.23 183.65 661.28 178.71 664.11 173.90 C 662.41 180.60 658.23 186.64 652.95 191.03 L 652.12 191.38 C 653.09 189.94 654.13 188.55 655.19 187.18 C 654.51 187.08 653.14 186.89 652.46 186.80 L 653.13 186.36 Z" />
<path fill="#503148" opacity="1.00" d=" M 631.30 189.86 C 637.64 190.81 644.01 189.89 650.08 187.99 L 651.24 187.93 C 645.11 192.43 636.82 191.50 629.71 190.62 C 630.10 190.43 630.90 190.05 631.30 189.86 Z" />
<path fill="#503148" opacity="1.00" d=" M 507.17 198.94 C 507.68 199.44 508.19 199.95 508.69 200.47 C 508.85 211.35 513.56 221.76 516.52 232.13 C 514.64 229.59 512.79 227.03 510.92 224.48 C 512.39 216.09 505.46 207.81 507.17 198.94 Z" />
<path fill="#503148" opacity="1.00" d=" M 511.95 204.68 C 520.45 214.52 521.02 228.22 522.98 240.42 C 522.03 241.96 521.10 243.51 520.17 245.06 C 520.07 243.10 519.98 241.13 519.89 239.16 C 520.99 227.08 516.56 215.58 511.95 204.68 Z" />
<path fill="#503148" opacity="1.00" d=" M 554.00 225.12 C 554.52 225.40 555.54 225.96 556.05 226.24 C 555.38 230.52 555.50 234.91 556.60 239.12 C 557.30 247.13 565.54 244.70 570.96 244.12 C 566.45 246.55 560.58 246.97 556.02 244.46 L 556.97 244.31 C 554.48 238.21 553.42 231.70 554.00 225.12 Z" />
<path fill="#503148" opacity="1.00" d=" M 379.93 235.65 C 384.17 252.24 389.68 269.37 401.89 281.99 C 403.66 275.22 404.51 268.18 404.05 261.18 C 404.34 261.46 404.93 262.02 405.23 262.29 C 404.87 269.16 404.64 276.02 404.68 282.90 C 402.97 294.14 413.34 301.74 415.02 312.03 C 409.34 303.56 402.62 294.54 402.61 283.86 C 394.46 299.33 409.44 311.41 415.99 323.99 C 425.19 339.23 443.36 344.59 456.35 354.88 C 452.79 353.79 449.54 351.97 446.23 350.31 C 445.46 355.04 443.86 359.56 442.12 364.01 C 448.99 365.58 456.06 365.99 463.09 366.20 C 466.98 366.33 470.90 366.24 474.77 365.74 C 478.91 355.57 488.31 346.73 487.76 335.24 C 482.14 319.83 465.37 313.81 453.05 304.87 L 452.92 303.95 C 453.39 304.00 454.33 304.10 454.80 304.15 C 464.75 311.94 476.81 317.06 485.09 326.94 C 499.44 332.18 514.63 338.10 530.17 336.07 C 529.25 336.98 528.35 337.95 527.07 338.33 C 516.72 338.70 506.43 336.53 496.67 333.21 C 491.72 337.81 494.69 344.24 494.28 350.02 C 496.80 346.64 498.16 342.63 499.96 338.86 C 500.22 345.03 496.52 350.16 492.98 354.83 C 501.21 351.95 507.33 360.73 510.68 367.01 C 511.57 369.25 512.35 371.54 513.22 373.79 C 516.18 372.89 520.12 373.01 522.15 370.47 C 523.98 370.83 525.84 371.11 527.72 371.25 C 530.15 371.12 532.89 372.25 535.15 371.37 L 535.86 370.93 C 541.44 383.67 527.48 396.13 535.06 408.03 L 534.28 408.06 C 533.98 407.83 533.36 407.36 533.06 407.13 C 532.31 411.12 531.84 415.27 529.96 418.94 L 529.15 419.20 C 530.30 412.85 531.86 406.47 531.18 399.96 C 530.07 400.53 528.96 401.11 527.86 401.69 C 532.37 393.11 535.50 383.80 536.15 374.08 C 526.22 370.65 515.59 373.99 506.39 378.05 L 505.60 377.58 C 507.80 376.43 509.98 375.24 512.16 374.03 C 511.25 371.48 510.03 369.06 508.37 366.94 C 507.79 368.55 507.25 370.18 506.65 371.80 L 505.84 372.20 C 507.95 366.53 506.15 360.34 500.35 357.84 C 499.59 366.43 497.36 374.81 494.58 382.94 C 494.35 382.64 493.91 382.03 493.68 381.73 C 496.27 373.40 497.90 364.77 498.83 356.11 C 493.80 356.07 489.06 358.63 484.75 360.99 C 483.25 359.98 481.76 358.98 480.23 358.05 C 479.45 359.98 478.74 361.94 478.07 363.92 C 479.74 363.66 481.42 363.40 483.10 363.17 C 480.12 366.10 475.99 367.11 472.10 368.20 C 456.56 367.65 437.73 369.07 425.52 358.00 C 430.26 360.05 434.89 362.48 440.01 363.46 C 442.18 359.68 443.60 355.50 444.14 351.18 C 433.70 350.83 418.12 351.10 415.26 363.80 C 423.56 374.92 438.37 378.23 451.29 380.87 C 447.35 385.10 443.37 391.95 436.86 391.31 C 427.39 388.61 417.56 384.89 411.03 377.15 C 406.24 388.01 415.36 397.07 424.76 400.76 C 440.38 407.82 459.62 408.54 475.28 401.24 L 476.11 400.97 C 470.81 406.79 462.19 406.83 454.93 407.80 C 453.36 407.93 451.79 408.04 450.24 408.17 C 434.83 407.09 416.43 403.15 408.56 388.28 C 386.57 415.31 402.21 453.50 389.77 483.39 C 391.97 470.64 393.46 457.70 392.80 444.74 C 393.13 440.89 393.68 437.05 393.85 433.19 C 377.29 452.75 364.90 476.03 355.85 500.00 L 354.12 500.00 C 354.33 498.71 354.50 497.42 354.67 496.13 C 352.64 494.03 349.86 492.55 348.77 489.70 C 351.22 490.72 353.41 492.24 355.67 493.61 C 357.91 488.66 361.20 483.37 359.15 477.78 C 358.99 476.35 358.90 474.92 358.86 473.50 C 360.45 475.29 361.02 477.62 361.54 479.91 C 368.64 466.45 376.24 453.22 385.23 440.90 C 373.56 432.99 360.46 424.68 355.69 410.63 C 363.98 421.99 373.80 432.67 386.78 438.87 C 388.54 436.62 390.30 434.37 392.18 432.21 C 392.53 431.81 393.23 430.99 393.58 430.58 C 394.47 416.11 396.31 400.83 405.39 388.94 C 401.26 375.46 389.88 366.48 380.25 356.95 C 379.70 355.86 379.19 354.75 378.71 353.64 C 389.34 363.54 402.03 373.33 406.43 387.84 C 406.75 387.52 407.39 386.86 407.71 386.53 C 408.41 381.21 408.87 375.85 410.03 370.60 C 410.39 368.42 410.35 366.08 411.92 364.35 C 414.82 358.69 418.51 352.54 425.19 350.98 C 426.46 350.58 427.75 350.20 429.03 349.82 C 423.85 337.17 412.99 326.84 399.60 323.43 C 388.32 320.84 377.25 314.21 372.53 303.21 C 364.14 305.00 355.75 310.79 354.14 319.71 C 355.86 320.05 357.59 320.41 359.30 320.82 C 346.62 321.30 340.28 334.91 336.31 345.24 C 332.12 362.36 330.55 380.27 331.41 397.87 C 333.67 414.03 332.09 432.11 342.04 446.04 C 344.15 449.72 346.89 452.99 349.78 456.08 C 351.69 458.89 353.56 461.84 354.24 465.23 C 348.19 458.93 343.48 451.43 337.83 444.75 C 332.04 431.69 331.28 417.33 329.97 403.30 C 328.99 403.48 328.25 404.11 327.74 405.17 C 330.21 390.37 328.74 374.99 331.04 360.00 C 332.58 347.67 336.92 335.65 345.11 326.14 C 353.71 318.09 353.32 304.91 358.03 294.68 C 358.13 300.32 355.89 305.60 354.95 311.09 C 359.58 306.44 365.23 302.89 371.77 301.65 C 367.68 291.67 365.81 280.91 366.16 270.13 L 367.05 270.16 C 367.64 283.80 370.18 298.23 378.68 309.31 C 388.89 321.86 407.14 320.51 418.80 331.14 C 410.60 316.65 392.77 302.33 400.83 284.10 C 389.36 270.51 381.14 253.53 379.93 235.65 M 487.00 329.75 C 492.89 339.24 485.17 348.65 481.03 356.96 C 482.28 357.76 483.57 358.51 484.90 359.21 C 487.29 357.22 489.63 355.16 491.82 352.96 C 492.22 348.96 492.76 344.97 492.72 340.95 C 491.03 344.29 489.90 347.87 488.17 351.20 C 487.71 344.50 491.50 338.54 494.84 333.05 C 492.39 331.59 489.69 330.64 487.00 329.75 M 419.96 332.19 C 424.09 337.77 428.92 343.02 431.28 349.69 C 435.88 349.61 440.48 349.69 445.08 349.83 C 436.02 345.01 427.29 339.44 419.96 332.19 Z" />
<path fill="#503148" opacity="1.00" d=" M 463.84 236.05 L 464.68 236.30 C 465.39 240.68 466.48 245.01 468.61 248.94 C 469.48 250.70 470.36 252.47 471.06 254.32 C 465.90 249.80 463.74 242.74 463.84 236.05 Z" />
<path fill="#503148" opacity="1.00" d=" M 408.26 240.67 C 411.47 245.56 410.61 252.38 414.75 257.01 C 413.95 257.92 413.15 258.84 412.37 259.77 C 412.02 258.40 411.66 257.05 411.28 255.70 C 410.90 258.17 410.63 260.66 410.48 263.16 C 410.42 261.20 410.30 259.25 410.01 257.32 C 409.54 256.97 408.61 256.27 408.14 255.92 L 408.51 255.32 C 409.54 255.18 410.57 255.07 411.62 254.97 C 409.33 250.55 408.68 245.56 408.26 240.67 Z" />
<path fill="#503148" opacity="1.00" d=" M 472.08 255.20 C 477.99 256.74 485.16 255.57 490.21 252.15 C 490.08 252.78 489.82 254.04 489.69 254.67 C 483.14 255.83 476.52 257.59 469.83 256.57 L 470.64 256.07 C 471.00 255.86 471.72 255.42 472.08 255.20 Z" />
<path fill="#503148" opacity="1.00" d=" M 539.76 257.77 C 541.75 259.11 543.24 261.00 544.56 262.97 C 543.79 264.00 543.02 265.04 542.25 266.08 C 541.86 263.18 540.71 260.50 539.76 257.77 Z" />
<path fill="#503148" opacity="1.00" d=" M 419.11 258.87 C 419.59 258.88 420.54 258.90 421.02 258.92 C 421.45 259.83 421.88 260.75 422.31 261.68 C 423.22 262.12 424.13 262.57 425.05 263.02 L 424.10 262.95 L 423.19 262.86 C 420.71 278.35 425.98 293.09 433.93 305.98 C 419.34 293.88 424.83 273.71 419.11 258.87 Z" />
<path fill="#503148" opacity="1.00" d=" M 435.72 261.89 C 437.20 263.18 438.60 264.58 439.78 266.16 C 440.97 267.88 442.08 269.66 443.21 271.42 C 442.83 271.48 442.07 271.58 441.69 271.63 C 439.82 268.68 437.73 265.89 435.86 262.96 L 435.72 261.89 Z" />
<path fill="#503148" opacity="1.00" d=" M 428.92 266.07 C 432.95 269.46 432.85 275.22 433.93 279.97 C 442.66 287.06 453.88 290.66 465.06 290.81 C 462.54 289.45 459.86 288.17 458.09 285.82 C 463.60 289.06 469.78 291.02 476.23 290.51 C 471.07 293.92 463.98 291.84 458.12 291.55 C 450.22 290.57 443.06 287.10 436.02 283.61 C 437.22 287.17 438.69 290.64 439.58 294.30 L 439.27 293.94 C 433.41 285.58 432.73 275.25 428.92 266.07 Z" />
<path fill="#503148" opacity="1.00" d=" M 412.60 270.74 C 413.30 275.83 412.96 280.97 413.00 286.08 C 413.91 294.29 420.34 300.38 422.13 308.28 C 414.92 300.19 410.60 288.76 411.72 277.80 C 411.90 275.43 412.24 273.08 412.60 270.74 Z" />
<path fill="#503148" opacity="1.00" d=" M 444.14 273.11 L 444.58 272.65 C 447.14 275.73 450.03 278.49 452.99 281.18 L 453.13 282.26 C 449.62 280.43 446.95 277.45 444.37 274.53 C 444.31 274.17 444.20 273.47 444.14 273.11 Z" />
<path fill="#503148" opacity="1.00" d=" M 512.79 308.66 C 515.68 304.98 520.94 305.16 525.16 305.37 C 520.99 306.29 516.61 306.56 512.79 308.66 Z" />
<path fill="#503148" opacity="1.00" d=" M 571.25 307.10 L 571.94 306.55 C 562.95 335.48 555.03 364.76 548.07 394.23 C 552.63 366.08 560.04 338.36 568.90 311.24 L 567.40 310.70 L 567.98 310.17 C 569.08 309.15 570.16 308.12 571.25 307.10 Z" />
<path fill="#503148" opacity="1.00" d=" M 638.43 312.73 C 647.41 316.80 645.75 329.83 640.29 336.26 C 632.96 345.29 620.14 344.84 609.93 342.06 C 608.49 340.80 607.06 339.54 605.63 338.29 C 605.93 338.22 606.53 338.08 606.83 338.00 C 617.21 344.06 632.99 343.97 640.45 333.40 C 644.12 329.08 644.80 322.70 642.27 317.66 C 643.33 327.71 630.03 332.70 624.09 324.80 C 632.86 332.77 646.03 322.99 638.43 312.73 Z" />
<path fill="#503148" opacity="1.00" d=" M 615.07 316.78 C 616.35 318.17 617.68 319.51 619.08 320.80 L 617.88 320.69 C 618.19 323.87 620.30 326.34 622.05 328.86 C 618.19 325.96 615.91 321.47 615.07 316.78 Z" />
<path fill="#503148" opacity="1.00" d=" M 551.78 322.96 C 552.86 322.27 553.95 321.59 555.04 320.91 L 555.80 320.45 C 541.71 374.57 533.75 430.89 540.11 486.77 C 542.75 487.44 545.41 488.08 548.04 488.86 C 550.51 489.61 552.90 490.57 555.28 491.61 L 554.65 492.25 C 547.78 489.95 540.78 488.14 533.72 486.57 C 535.37 486.34 537.03 486.08 538.69 485.87 C 536.23 469.00 535.87 451.89 535.86 434.87 C 535.97 427.05 538.05 419.02 535.93 411.33 C 541.65 383.16 544.78 353.25 552.93 325.11 C 552.64 324.57 552.06 323.50 551.78 322.96 Z" />
<path fill="#503148" opacity="1.00" d=" M 527.29 346.13 C 527.59 343.99 528.02 341.88 528.53 339.79 C 528.84 349.70 527.89 360.30 522.94 369.06 C 524.47 361.43 526.75 353.93 527.29 346.13 Z" />
<path fill="#503148" opacity="1.00" d=" M 194.90 354.59 C 196.13 353.25 197.52 352.08 198.94 350.96 C 195.13 358.93 195.12 368.12 199.27 375.97 C 192.67 370.63 196.58 361.39 194.90 354.59 Z" />
<path fill="#503148" opacity="1.00" d=" M 603.96 352.36 C 604.09 352.01 604.36 351.30 604.50 350.94 C 607.36 358.96 607.31 367.55 608.80 375.82 C 608.18 377.55 607.75 379.32 607.42 381.13 C 607.00 371.46 606.25 361.79 603.96 352.36 Z" />
<path fill="#503148" opacity="1.00" d=" M 487.36 364.55 C 489.46 371.87 484.12 378.61 483.98 385.90 L 483.83 386.70 C 483.16 387.74 482.72 388.89 482.50 390.16 C 480.64 386.79 482.29 382.67 483.08 379.17 C 484.16 376.18 485.58 373.30 486.27 370.19 C 486.65 368.31 486.97 366.42 487.36 364.55 Z" />
<path fill="#503148" opacity="1.00" d=" M 207.66 422.34 C 188.70 411.92 178.28 386.74 187.79 366.66 C 182.32 386.00 188.67 408.98 206.75 419.36 C 219.11 427.64 233.90 431.86 248.67 432.70 C 250.33 431.08 252.09 429.42 254.48 429.06 C 232.45 453.09 197.70 467.17 186.62 500.00 L 185.59 500.00 C 193.52 469.20 225.34 454.53 246.99 434.30 C 233.10 433.98 219.58 429.29 207.66 422.34 Z" />
<path fill="#503148" opacity="1.00" d=" M 618.07 385.77 C 628.41 398.91 623.80 416.78 626.28 431.78 C 625.77 431.62 624.74 431.30 624.22 431.14 C 623.52 432.77 622.83 434.41 622.14 436.06 C 626.07 419.53 625.57 401.27 618.07 385.77 Z" />
<path fill="#503148" opacity="1.00" d=" M 603.43 390.73 C 603.76 391.89 604.08 393.04 604.39 394.21 C 603.26 406.54 599.80 418.55 594.81 429.85 L 593.61 429.88 C 598.36 417.29 603.12 404.35 603.43 390.73 Z" />
<path fill="#503148" opacity="1.00" d=" M 480.97 398.84 L 481.84 399.01 C 482.03 402.35 482.04 405.71 482.08 409.06 C 486.60 410.18 491.38 410.16 495.71 408.28 C 503.02 417.47 516.15 420.46 527.45 421.18 L 526.77 421.90 C 517.72 424.12 509.00 419.91 501.07 416.06 C 503.45 424.92 505.11 434.01 508.78 442.46 C 508.92 442.92 509.18 443.84 509.32 444.30 C 507.82 443.09 506.36 441.85 504.91 440.60 C 503.00 430.23 500.99 418.68 494.89 409.88 C 493.03 410.62 491.18 411.37 489.33 412.13 C 489.26 413.33 489.19 414.54 489.10 415.75 C 487.89 421.64 486.54 427.59 487.20 433.65 C 487.01 434.06 486.63 434.90 486.44 435.31 C 484.83 427.59 486.24 419.81 487.91 412.24 C 486.01 411.87 484.12 411.51 482.24 411.15 C 482.15 411.74 481.98 412.92 481.89 413.51 C 480.87 420.25 479.05 426.88 475.84 432.92 C 475.36 433.89 474.87 434.86 474.38 435.83 C 469.41 445.62 463.53 454.95 459.00 464.97 C 452.54 476.01 449.26 488.49 443.87 500.00 L 442.85 500.00 C 449.14 476.50 461.77 455.49 473.47 434.39 C 479.71 423.68 481.79 411.09 480.97 398.84 Z" />
<path fill="#503148" opacity="1.00" d=" M 305.15 455.08 C 313.70 439.84 319.20 423.01 327.22 407.63 C 318.39 440.47 297.08 468.13 285.89 500.00 L 284.07 500.00 C 288.37 483.85 297.50 469.74 305.15 455.08 Z" />
<path fill="#503148" opacity="1.00" d=" M 256.97 426.36 C 257.53 423.90 259.09 422.00 261.33 420.86 L 261.20 421.94 C 259.88 423.50 258.42 424.92 256.97 426.36 Z" />
<path fill="#503148" opacity="1.00" d=" M 488.54 466.06 C 488.13 456.03 488.09 445.91 487.39 435.88 C 489.19 445.79 490.80 456.08 488.54 466.06 Z" />
<path fill="#503148" opacity="1.00" d=" M 566.30 435.95 C 566.52 436.26 566.97 436.89 567.19 437.21 C 565.71 440.94 564.66 444.82 563.87 448.76 C 559.99 461.76 558.56 475.37 557.83 488.87 C 557.58 489.16 557.08 489.72 556.83 490.01 C 557.35 471.67 560.18 453.28 566.30 435.95 Z" />
<path fill="#503148" opacity="1.00" d=" M 628.05 435.76 C 633.23 443.34 631.61 453.25 636.20 460.94 C 635.65 460.71 634.54 460.25 633.99 460.03 C 634.07 464.06 634.96 468.08 634.57 472.12 C 632.63 459.95 631.48 447.65 628.05 435.76 Z" />
<path fill="#503148" opacity="1.00" d=" M 668.22 436.68 C 670.69 438.58 673.01 440.67 675.14 442.96 C 672.13 441.74 669.88 439.41 668.22 436.68 Z" />
<path fill="#503148" opacity="1.00" d=" M 511.94 443.05 C 518.45 439.44 526.71 442.52 532.95 437.82 C 531.98 438.98 531.08 440.18 530.12 441.35 C 524.14 445.24 516.45 441.32 510.94 446.03 C 510.65 445.83 510.07 445.42 509.78 445.22 C 510.48 444.48 511.20 443.75 511.94 443.05 Z" />
<path fill="#503148" opacity="1.00" d=" M 678.23 445.68 C 683.08 449.52 687.48 453.93 691.32 458.78 C 686.41 455.04 681.99 450.58 678.23 445.68 Z" />
<path fill="#503148" opacity="1.00" d=" M 337.35 446.93 C 338.84 461.17 332.64 478.19 336.92 493.28 C 337.25 495.51 337.58 497.75 337.91 500.00 L 336.06 500.00 C 331.38 482.62 334.29 464.33 337.35 446.93 Z" />
<path fill="#503148" opacity="1.00" d=" M 500.83 466.32 C 502.77 463.34 505.41 460.86 508.30 458.82 C 506.72 462.05 504.02 464.68 500.83 466.32 Z" />
<path fill="#503148" opacity="1.00" d=" M 472.35 460.31 L 473.06 459.79 C 472.16 466.98 479.74 473.83 486.39 474.09 C 486.64 474.31 487.12 474.75 487.36 474.96 C 487.77 475.32 488.58 476.02 488.99 476.38 C 488.83 477.45 488.68 478.53 488.54 479.62 C 488.96 479.96 489.81 480.66 490.24 481.00 C 490.43 487.33 490.40 493.67 490.19 500.00 L 481.97 500.00 C 480.07 495.62 481.83 490.92 482.06 486.41 C 482.11 483.14 483.98 480.51 485.98 478.11 C 480.53 476.00 475.70 472.73 472.14 468.06 C 471.11 471.95 470.52 475.93 469.99 479.91 C 468.99 486.57 468.16 493.27 467.87 500.00 L 466.84 500.00 C 467.09 486.61 469.49 473.36 472.35 460.31 Z" />
<path fill="#503148" opacity="1.00" d=" M 655.86 461.99 C 669.87 464.93 681.72 473.74 693.05 482.06 C 697.35 486.51 700.75 491.74 705.06 496.18 C 705.52 492.07 704.58 487.90 705.50 483.84 C 706.42 489.18 705.86 494.61 705.92 500.00 L 704.36 500.00 C 694.93 483.34 678.15 472.13 660.96 464.69 C 661.19 465.31 661.66 466.55 661.89 467.17 C 659.63 465.74 657.67 463.92 655.86 461.99 Z" />
<path fill="#503148" opacity="1.00" d=" M 567.53 463.89 C 567.81 473.27 562.18 482.10 562.98 491.66 C 564.02 491.97 565.06 492.30 566.10 492.64 C 565.54 492.94 564.41 493.53 563.84 493.83 C 570.06 497.68 577.77 497.74 584.60 500.00 L 577.56 500.00 C 570.37 497.76 563.00 496.00 556.15 492.81 L 555.76 492.02 C 557.50 492.24 559.23 492.50 560.98 492.75 C 561.71 484.75 564.01 477.04 565.75 469.23 C 566.28 467.42 566.92 465.66 567.53 463.89 Z" />
<path fill="#503148" opacity="1.00" d=" M 670.03 474.85 C 674.15 478.49 678.01 482.43 681.30 486.84 C 676.97 483.49 672.69 479.71 670.03 474.85 Z" />
<path fill="#503148" opacity="1.00" d=" M 574.95 489.01 C 590.63 483.04 610.20 470.97 625.18 485.21 L 624.08 485.12 C 605.54 471.67 586.73 488.47 568.34 492.25 C 567.96 492.07 567.19 491.71 566.80 491.53 C 571.97 491.34 574.83 487.13 578.19 483.89 C 577.15 485.62 576.05 487.32 574.95 489.01 Z" />
<path fill="#503148" opacity="1.00" d=" M 651.78 484.23 C 652.04 483.89 652.57 483.23 652.84 482.90 C 653.09 486.95 653.09 491.02 652.85 495.08 C 652.56 494.75 651.98 494.08 651.69 493.75 C 652.08 490.58 652.05 487.39 651.78 484.23 Z" />
</g>
<g id="#fae298fe">
<path fill="#fae298" opacity="1.00" d=" M 343.71 164.94 C 347.27 141.48 349.90 112.35 371.04 97.80 C 354.24 116.69 348.23 142.59 345.34 167.06 C 344.30 175.13 353.33 176.05 359.06 174.12 C 356.38 194.73 353.33 215.37 353.24 236.20 C 351.31 242.93 349.14 253.16 340.14 252.64 C 331.10 252.02 329.73 241.67 329.81 234.52 C 328.42 239.20 328.87 244.11 329.38 248.89 C 328.13 258.14 323.18 266.57 322.49 276.03 C 322.29 275.46 321.87 274.34 321.66 273.78 C 326.88 240.34 325.78 206.32 327.77 172.64 C 328.10 170.56 328.59 168.52 329.12 166.49 L 329.83 167.01 C 329.67 168.81 329.39 170.59 329.07 172.36 C 334.81 175.81 344.67 172.90 343.71 164.94 Z" />
<path fill="#fae298" opacity="1.00" d=" M 386.10 175.12 C 390.11 163.93 389.44 150.90 396.09 140.66 C 394.35 152.41 388.77 164.06 389.94 176.00 C 396.15 180.74 405.42 176.45 412.63 175.48 C 414.28 173.49 415.80 171.38 416.96 169.06 C 414.04 190.06 416.37 211.45 422.35 231.71 C 425.08 242.70 429.07 253.79 435.86 262.96 C 437.73 265.89 439.82 268.68 441.69 271.63 C 442.07 271.58 442.83 271.48 443.21 271.42 L 443.84 271.33 C 443.92 271.78 444.07 272.67 444.14 273.11 C 444.20 273.47 444.31 274.17 444.37 274.53 C 446.95 277.45 449.62 280.43 453.13 282.26 L 452.99 281.18 C 454.88 282.50 456.61 284.04 458.09 285.82 C 459.86 288.17 462.54 289.45 465.06 290.81 C 453.88 290.66 442.66 287.06 433.93 279.97 C 432.85 275.22 432.95 269.46 428.92 266.07 L 428.41 265.53 C 428.17 267.10 427.95 268.69 427.75 270.27 C 426.89 267.68 426.02 264.98 424.10 262.95 L 425.05 263.02 C 424.13 262.57 423.22 262.12 422.31 261.68 C 421.88 260.75 421.45 259.83 421.02 258.92 C 415.81 248.83 410.20 238.56 409.45 226.96 C 407.86 231.35 407.53 236.07 408.26 240.67 C 408.68 245.56 409.33 250.55 411.62 254.97 C 410.57 255.07 409.54 255.18 408.51 255.32 L 408.14 255.92 C 407.04 257.98 406.06 260.11 405.23 262.29 C 404.93 262.02 404.34 261.46 404.05 261.18 C 390.21 245.46 380.28 225.59 377.33 204.73 C 377.92 225.19 379.99 247.37 367.06 265.08 C 353.36 276.29 331.85 268.32 330.96 250.02 C 335.08 253.99 340.73 254.64 346.06 253.07 C 344.12 255.24 341.64 256.77 339.03 258.02 C 347.71 258.46 350.87 249.01 353.42 242.41 C 360.76 221.60 361.69 199.38 364.81 177.72 C 372.20 177.62 379.70 178.53 387.01 177.14 C 386.78 176.63 386.33 175.62 386.10 175.12 Z" />
<path fill="#fae298" opacity="1.00" d=" M 541.48 162.78 C 542.91 178.82 535.91 194.30 528.35 208.09 C 522.90 192.48 516.28 177.12 506.17 163.88 C 517.49 164.14 532.13 168.46 541.48 162.78 Z" />
</g>
<g id="#f1a487ff">
<path fill="#f1a487" opacity="1.00" d=" M 460.43 185.31 C 467.41 159.02 458.80 127.58 475.97 104.78 C 470.79 130.68 473.08 157.53 480.08 182.87 C 479.32 182.87 477.79 182.88 477.03 182.89 C 470.67 163.07 471.16 141.95 471.93 121.46 C 467.56 139.28 471.34 157.69 472.31 175.68 C 474.69 177.78 474.54 181.14 474.99 184.02 C 473.43 183.67 471.35 183.94 470.69 182.11 C 469.87 182.99 469.06 183.87 468.25 184.75 C 471.59 194.78 465.29 208.50 470.60 218.45 C 470.71 218.83 470.93 219.59 471.04 219.97 C 469.07 220.09 467.11 220.09 465.15 220.04 C 457.48 211.60 452.29 201.01 448.86 190.18 C 450.30 189.42 451.73 188.65 453.14 187.85 L 451.97 187.84 C 454.62 186.51 457.50 185.72 460.43 185.31 Z" />
<path fill="#f1a487" opacity="1.00" d=" M 359.06 174.12 C 364.67 151.00 367.40 120.56 390.17 107.84 C 377.83 123.58 370.98 142.64 367.26 162.16 C 367.16 161.53 366.98 160.26 366.89 159.63 C 360.30 184.74 361.28 211.39 353.24 236.20 C 353.33 215.37 356.38 194.73 359.06 174.12 Z" />
<path fill="#f1a487" opacity="1.00" d=" M 481.95 182.87 C 482.29 167.80 482.10 151.59 488.38 137.67 C 490.25 152.61 495.42 166.98 500.72 181.00 C 500.62 174.30 498.50 166.87 502.01 160.71 C 503.76 161.19 505.06 162.49 506.17 163.88 C 516.28 177.12 522.90 192.48 528.35 208.09 C 535.91 194.30 542.91 178.82 541.48 162.78 C 540.10 155.09 538.12 147.54 536.24 139.97 C 544.66 151.53 546.13 166.52 547.38 180.36 C 546.31 180.56 545.25 180.76 544.20 180.97 C 543.94 177.23 543.73 173.48 543.45 169.75 C 542.92 173.71 542.72 177.70 542.51 181.69 C 541.70 181.90 540.90 182.11 540.10 182.32 C 544.94 198.96 532.32 218.16 525.89 234.31 L 526.76 233.86 C 525.59 236.10 524.34 238.30 522.98 240.42 C 521.02 228.22 520.45 214.52 511.95 204.68 C 516.56 215.58 520.99 227.08 519.89 239.16 C 518.73 236.83 517.48 234.55 516.52 232.13 C 513.56 221.76 508.85 211.35 508.69 200.47 C 508.19 199.95 507.68 199.44 507.17 198.94 C 505.46 207.81 512.39 216.09 510.92 224.48 C 509.21 222.31 507.49 220.14 506.02 217.81 C 500.29 207.39 494.83 196.85 490.15 185.99 C 491.57 194.51 492.74 203.09 494.81 211.48 C 493.54 211.39 492.28 211.31 491.03 211.23 C 484.57 203.51 480.53 193.89 477.85 184.26 C 484.41 183.27 490.90 185.69 497.35 183.63 C 494.98 183.26 492.62 182.93 490.26 182.63 C 487.89 175.54 487.86 168.10 487.47 160.73 C 486.59 168.08 487.49 175.43 488.04 182.77 C 486.01 182.80 483.97 182.84 481.95 182.87 Z" />
<path fill="#f1a487" opacity="1.00" d=" M 553.20 140.94 C 560.61 152.33 564.73 165.70 567.07 179.01 C 564.10 178.88 561.14 178.90 558.18 178.88 C 552.41 166.93 554.27 153.76 553.20 140.94 Z" />
<path fill="#f1a487" opacity="1.00" d=" M 434.17 159.68 C 434.18 155.32 434.76 150.99 435.69 146.73 C 435.83 161.71 435.40 176.82 439.33 191.44 C 439.85 191.47 440.88 191.53 441.40 191.56 L 440.70 191.91 C 442.47 191.66 444.24 191.34 445.99 190.97 C 445.67 200.36 445.84 209.74 445.64 219.13 C 442.27 211.28 438.99 203.35 437.00 195.02 C 437.23 194.61 437.70 193.79 437.94 193.38 C 432.32 183.26 436.32 170.62 434.17 159.68 Z" />
<path fill="#f1a487" opacity="1.00" d=" M 577.97 153.76 C 590.43 171.66 594.70 194.42 596.62 215.96 C 595.58 221.90 592.86 227.39 591.79 233.33 L 592.54 232.74 C 591.99 233.94 591.42 235.12 590.87 236.32 C 590.02 218.75 588.65 200.87 582.49 184.17 C 584.04 184.45 585.59 184.75 587.15 185.07 C 579.30 182.00 583.25 172.17 581.61 165.77 C 581.39 166.17 580.94 166.96 580.71 167.35 C 580.00 162.78 578.45 158.37 577.97 153.76 Z" />
<path fill="#f1a487" opacity="1.00" d=" M 418.48 164.04 C 418.83 162.90 419.27 161.79 419.71 160.68 C 419.94 171.35 421.04 182.26 425.35 192.13 C 426.72 184.43 427.89 175.99 433.16 169.86 C 433.53 180.74 433.55 191.85 436.82 202.10 C 433.77 217.93 429.07 234.05 431.48 250.37 C 432.76 245.26 432.69 239.96 433.20 234.74 C 434.84 235.34 436.49 235.95 438.07 236.72 C 436.46 246.60 439.00 256.36 439.78 266.16 C 438.60 264.58 437.20 263.18 435.72 261.89 L 435.86 262.96 C 429.07 253.79 425.08 242.70 422.35 231.71 L 423.14 232.33 C 417.51 210.02 414.92 186.90 418.48 164.04 Z" />
<path fill="#f1a487" opacity="1.00" d=" M 442.08 191.24 C 442.95 183.12 441.42 173.90 445.69 166.68 C 446.70 173.85 448.62 180.82 450.15 187.89 C 449.71 187.88 448.85 187.86 448.41 187.85 C 447.95 186.80 447.52 185.75 447.11 184.68 C 447.42 188.16 445.21 190.32 442.08 191.24 Z" />
<path fill="#f1a487" opacity="1.00" d=" M 558.81 180.06 C 562.87 180.20 566.92 180.55 570.96 181.02 C 571.45 183.12 569.80 186.90 572.72 187.45 C 572.44 185.56 572.15 183.67 571.88 181.79 C 575.51 181.90 579.53 182.16 582.25 184.89 C 580.37 191.50 581.64 198.78 578.45 205.10 C 577.79 199.80 576.95 194.24 573.97 189.69 C 575.23 196.51 576.49 203.34 577.48 210.22 C 581.05 203.73 581.91 196.05 582.19 188.75 C 585.49 197.50 586.77 207.03 587.13 216.35 C 584.55 214.67 581.82 213.21 578.87 212.33 C 581.35 211.84 583.94 212.04 586.40 211.32 C 581.73 211.27 577.07 210.65 572.41 210.83 C 572.47 206.24 571.73 201.66 570.15 197.35 C 568.28 201.55 567.38 206.14 565.21 210.22 C 563.65 212.11 561.10 211.96 558.90 212.04 C 558.93 209.70 559.36 207.19 561.86 206.34 C 558.33 200.00 561.22 188.42 558.81 180.06 Z" />
<path fill="#f1a487" opacity="1.00" d=" M 367.06 265.08 C 379.99 247.37 377.92 225.19 377.33 204.73 C 380.28 225.59 390.21 245.46 404.05 261.18 C 404.51 268.18 403.66 275.22 401.89 281.99 C 389.68 269.37 384.17 252.24 379.93 235.65 C 381.14 253.53 389.36 270.51 400.83 284.10 C 392.77 302.33 410.60 316.65 418.80 331.14 C 407.14 320.51 388.89 321.86 378.68 309.31 C 370.18 298.23 367.64 283.80 367.05 270.16 L 366.16 270.13 C 365.81 280.91 367.68 291.67 371.77 301.65 C 365.23 302.89 359.58 306.44 354.95 311.09 C 355.89 305.60 358.13 300.32 358.03 294.68 C 353.32 304.91 353.71 318.09 345.11 326.14 C 348.46 308.02 355.69 290.36 355.94 271.83 C 359.41 270.83 362.80 269.55 366.18 268.28 C 366.49 268.39 367.12 268.61 367.43 268.73 C 368.95 267.10 370.50 265.51 372.02 263.89 C 370.35 264.22 368.68 264.56 367.06 265.08 M 401.33 314.95 C 394.01 305.98 385.37 297.35 378.69 287.62 C 379.49 292.33 383.51 295.51 384.95 299.98 C 379.85 297.72 378.40 291.23 377.11 286.27 L 378.47 286.14 C 376.61 281.51 374.92 276.78 374.40 271.79 C 371.97 290.12 383.26 309.58 401.33 314.95 Z" />
<path fill="#f1a487" opacity="1.00" d=" M 586.29 277.27 C 585.24 257.83 577.24 237.05 587.66 218.66 C 588.70 226.55 587.35 234.54 588.47 242.41 C 587.78 242.65 587.09 242.89 586.42 243.13 C 585.34 254.49 588.52 265.93 586.29 277.27 Z" />
<path fill="#f1a487" opacity="1.00" d=" M 408.26 240.67 C 407.53 236.07 407.86 231.35 409.45 226.96 C 410.20 238.56 415.81 248.83 421.02 258.92 C 420.54 258.90 419.59 258.88 419.11 258.87 C 418.69 259.39 417.84 260.44 417.41 260.97 C 416.54 259.64 415.64 258.32 414.75 257.01 C 410.61 252.38 411.47 245.56 408.26 240.67 Z" />
<path fill="#f1a487" opacity="1.00" d=" M 329.38 248.89 C 330.11 254.15 331.66 259.37 334.67 263.81 C 330.17 274.06 330.91 286.41 324.26 296.04 L 324.17 294.85 C 319.95 300.40 318.02 307.31 314.01 313.03 C 316.97 300.03 319.54 286.95 321.66 273.78 C 321.87 274.34 322.29 275.46 322.49 276.03 C 323.18 266.57 328.13 258.14 329.38 248.89 Z" />
<path fill="#f1a487" opacity="1.00" d=" M 571.25 307.10 C 577.63 299.37 582.90 290.60 584.84 280.65 C 585.02 281.01 585.39 281.73 585.58 282.09 C 583.35 294.51 577.48 306.04 575.68 318.62 C 568.87 350.80 552.44 380.19 548.23 412.97 C 555.36 398.93 560.30 382.99 572.00 371.89 C 556.32 408.82 549.09 448.85 548.04 488.86 C 545.41 488.08 542.75 487.44 540.11 486.77 C 533.75 430.89 541.71 374.57 555.80 320.45 L 555.04 320.91 C 559.39 317.37 563.73 313.83 567.98 310.17 L 567.40 310.70 L 568.90 311.24 C 560.04 338.36 552.63 366.08 548.07 394.23 C 555.03 364.76 562.95 335.48 571.94 306.55 L 571.25 307.10 M 547.33 395.36 C 544.70 400.14 550.52 397.83 547.33 395.36 Z" />
<path fill="#f1a487" opacity="1.00" d=" M 605.57 328.64 C 613.02 340.84 629.66 341.32 640.45 333.40 C 632.99 343.97 617.21 344.06 606.83 338.00 C 604.50 335.82 605.90 332.41 605.54 329.63 L 605.57 328.64 Z" />
<path fill="#f1a487" opacity="1.00" d=" M 419.96 332.19 C 427.29 339.44 436.02 345.01 445.08 349.83 C 440.48 349.69 435.88 349.61 431.28 349.69 C 428.92 343.02 424.09 337.77 419.96 332.19 Z" />
<path fill="#f1a487" opacity="1.00" d=" M 276.90 451.93 C 298.46 423.57 315.02 391.69 331.04 360.00 C 328.74 374.99 330.21 390.37 327.74 405.17 C 328.25 404.11 328.99 403.48 329.97 403.30 C 331.28 417.33 332.04 431.69 337.83 444.75 C 337.71 445.30 337.47 446.39 337.35 446.93 C 334.29 464.33 331.38 482.62 336.06 500.00 L 285.89 500.00 C 297.08 468.13 318.39 440.47 327.22 407.63 C 319.20 423.01 313.70 439.84 305.15 455.08 C 297.50 469.74 288.37 483.85 284.07 500.00 L 223.57 500.00 C 234.26 471.94 257.67 452.00 277.13 430.12 C 283.68 422.86 285.87 413.21 287.81 403.95 C 287.22 420.44 281.13 436.13 276.90 451.93 Z" />
<path fill="#f1a487" opacity="1.00" d=" M 206.75 419.36 C 228.96 422.46 256.47 422.98 271.16 402.82 C 270.13 410.04 265.85 416.48 261.20 421.94 L 261.33 420.86 C 259.09 422.00 257.53 423.90 256.97 426.36 C 256.16 427.28 255.31 428.16 254.48 429.06 C 252.09 429.42 250.33 431.08 248.67 432.70 C 233.90 431.86 219.11 427.64 206.75 419.36 Z" />
<path fill="#f1a487" opacity="1.00" d=" M 642.85 450.04 C 662.51 454.22 681.25 465.76 693.05 482.06 C 681.72 473.74 669.87 464.93 655.86 461.99 C 651.25 458.48 645.52 455.24 642.85 450.04 Z" />
<path fill="#f1a487" opacity="1.00" d=" M 443.87 500.00 C 449.26 488.49 452.54 476.01 459.00 464.97 C 457.78 476.65 457.01 488.41 455.13 500.00 L 443.87 500.00 Z" />
<path fill="#f1a487" opacity="1.00" d=" M 640.94 467.83 C 651.53 476.80 660.73 487.81 667.45 500.00 L 649.71 500.00 C 650.38 497.92 651.03 495.83 651.69 493.75 C 651.98 494.08 652.56 494.75 652.85 495.08 C 653.09 491.02 653.09 486.95 652.84 482.90 C 652.57 483.23 652.04 483.89 651.78 484.23 C 650.38 477.35 644.03 473.66 640.94 467.83 Z" />
</g>
<g id="#f8f3f7ff">
<path fill="#f8f3f7" opacity="1.00" d=" M 516.25 105.00 C 525.06 109.87 528.01 124.18 523.69 132.81 C 523.09 132.81 521.89 132.83 521.29 132.83 C 517.07 124.56 518.49 114.10 516.25 105.00 Z" />
<path fill="#f8f3f7" opacity="1.00" d=" M 577.11 112.99 C 584.91 119.90 585.82 132.47 583.50 142.11 C 578.65 133.58 579.81 122.48 577.11 112.99 Z" />
<path fill="#f8f3f7" opacity="1.00" d=" M 382.29 148.12 C 381.20 136.43 385.75 121.50 396.74 115.96 C 390.89 126.22 388.91 138.30 382.29 148.12 Z" />
<path fill="#f8f3f7" opacity="1.00" d=" M 553.82 218.95 C 555.56 218.64 557.32 218.35 559.09 218.15 C 563.00 220.81 561.24 227.51 556.05 226.24 C 555.54 225.96 554.52 225.40 554.00 225.12 C 553.42 231.70 554.48 238.21 556.97 244.31 L 556.02 244.46 C 542.17 247.14 536.47 221.32 553.68 223.73 C 553.72 222.13 553.77 220.54 553.82 218.95 Z" />
<path fill="#f8f3f7" opacity="1.00" d=" M 464.90 226.06 C 466.82 225.65 468.76 225.27 470.69 224.85 C 471.04 225.14 471.73 225.71 472.08 226.00 C 474.28 231.02 470.97 238.49 464.68 236.30 L 463.84 236.05 C 463.74 242.74 465.90 249.80 471.06 254.32 C 470.95 254.75 470.75 255.63 470.64 256.07 L 469.83 256.57 C 461.78 255.75 451.74 253.86 448.81 245.23 C 446.15 235.95 456.10 232.08 463.23 230.46 C 463.76 228.99 464.32 227.52 464.90 226.06 Z" />
<path fill="#f8f3f7" opacity="1.00" d=" M 524.21 338.96 C 524.94 339.01 526.41 339.12 527.14 339.17 C 527.33 341.48 527.37 343.80 527.29 346.13 C 526.75 353.93 524.47 361.43 522.94 369.06 C 522.74 369.42 522.34 370.12 522.15 370.47 C 520.12 373.01 516.18 372.89 513.22 373.79 C 512.35 371.54 511.57 369.25 510.68 367.01 C 516.73 358.55 522.95 349.63 524.21 338.96 Z" />
<path fill="#f8f3f7" opacity="1.00" d=" M 480.23 358.05 C 481.76 358.98 483.25 359.98 484.75 360.99 C 486.01 363.88 486.62 367.04 486.27 370.19 C 485.58 373.30 484.16 376.18 483.08 379.17 C 473.17 381.12 463.03 382.38 452.94 381.03 C 457.63 374.65 465.06 371.30 472.10 368.20 C 475.99 367.11 480.12 366.10 483.10 363.17 C 481.42 363.40 479.74 363.66 478.07 363.92 C 478.74 361.94 479.45 359.98 480.23 358.05 Z" />
<path fill="#f8f3f7" opacity="1.00" d=" M 443.19 392.63 C 455.70 395.13 468.63 393.86 481.00 391.17 C 481.11 391.75 481.33 392.89 481.44 393.46 C 479.73 396.31 477.56 398.84 475.28 401.24 C 459.62 408.54 440.38 407.82 424.76 400.76 C 430.94 398.20 436.41 393.05 443.19 392.63 Z" />
<path fill="#f8f3f7" opacity="1.00" d=" M 481.89 413.51 C 482.51 413.91 483.76 414.69 484.38 415.08 C 479.58 433.90 487.43 452.46 487.58 471.28 C 487.96 469.54 488.31 467.81 488.54 466.06 C 490.80 456.08 489.19 445.79 487.39 435.88 C 487.34 435.33 487.25 434.21 487.20 433.65 C 486.54 427.59 487.89 421.64 489.10 415.75 C 495.93 423.65 500.38 433.34 503.30 443.31 C 498.77 453.38 494.60 463.62 489.00 473.16 C 488.45 473.76 487.91 474.36 487.36 474.96 C 487.12 474.75 486.64 474.31 486.39 474.09 C 477.24 461.92 473.68 447.88 475.84 432.92 C 479.05 426.88 480.87 420.25 481.89 413.51 Z" />
</g>
<g id="#683d54ff">
<path fill="#683d54" opacity="1.00" d=" M 547.05 107.84 C 551.12 118.38 551.87 129.82 553.20 140.94 C 554.27 153.76 552.41 166.93 558.18 178.88 C 561.14 178.90 564.10 178.88 567.07 179.01 C 568.47 179.09 569.88 179.18 571.30 179.30 C 573.77 163.45 571.37 147.51 570.17 131.71 C 573.72 147.46 572.79 163.67 573.25 179.69 C 575.91 180.40 578.57 181.14 581.24 181.89 C 581.36 177.03 581.11 172.19 580.71 167.35 C 580.94 166.96 581.39 166.17 581.61 165.77 C 583.25 172.17 579.30 182.00 587.15 185.07 C 585.59 184.75 584.04 184.45 582.49 184.17 C 588.65 200.87 590.02 218.75 590.87 236.32 C 589.97 238.31 589.22 240.36 588.47 242.41 C 587.35 234.54 588.70 226.55 587.66 218.66 C 577.24 237.05 585.24 257.83 586.29 277.27 C 586.07 278.88 585.80 280.48 585.58 282.09 C 585.39 281.73 585.02 281.01 584.84 280.65 C 585.19 259.69 576.36 238.18 585.96 217.87 C 582.77 220.16 580.36 223.27 577.97 226.33 C 578.10 224.13 578.25 221.93 578.40 219.74 C 577.40 219.10 576.41 218.47 575.42 217.83 C 576.82 224.12 576.31 230.84 573.77 236.78 L 573.08 237.38 C 573.27 235.16 573.60 232.96 573.92 230.76 C 574.55 226.61 574.38 222.40 573.95 218.25 C 568.99 218.43 564.04 218.32 559.09 218.15 C 557.32 218.35 555.56 218.64 553.82 218.95 C 549.78 219.69 545.75 220.47 541.66 220.90 C 542.62 219.27 543.62 217.67 544.66 216.09 C 544.27 215.90 543.48 215.52 543.08 215.33 C 545.39 214.79 547.72 214.29 550.06 213.85 C 552.61 213.30 555.20 212.93 557.80 212.66 C 557.85 210.78 557.90 208.91 557.95 207.04 C 553.86 206.99 549.62 206.95 545.79 208.62 C 543.18 210.36 542.06 213.58 540.24 216.05 C 540.83 211.25 541.83 206.42 541.04 201.58 C 536.60 212.46 533.15 223.86 526.76 233.86 L 525.89 234.31 C 532.32 218.16 544.94 198.96 540.10 182.32 C 540.90 182.11 541.70 181.90 542.51 181.69 C 542.72 177.70 542.92 173.71 543.45 169.75 C 543.73 173.48 543.94 177.23 544.20 180.97 C 545.25 180.76 546.31 180.56 547.38 180.36 C 548.60 180.13 549.82 179.92 551.05 179.71 C 553.96 155.78 552.27 131.34 547.05 107.84 M 553.42 170.88 C 553.20 173.66 553.10 176.45 552.99 179.24 C 553.75 179.17 555.26 179.04 556.01 178.97 C 555.55 176.16 555.00 173.30 553.42 170.88 M 558.81 180.06 C 561.22 188.42 558.33 200.00 561.86 206.34 C 559.36 207.19 558.93 209.70 558.90 212.04 C 561.10 211.96 563.65 212.11 565.21 210.22 L 564.82 211.00 C 567.34 211.19 569.88 211.11 572.41 210.83 C 577.07 210.65 581.73 211.27 586.40 211.32 C 583.94 212.04 581.35 211.84 578.87 212.33 C 581.82 213.21 584.55 214.67 587.13 216.35 C 586.77 207.03 585.49 197.50 582.19 188.75 C 581.91 196.05 581.05 203.73 577.48 210.22 C 576.49 203.34 575.23 196.51 573.97 189.69 C 576.95 194.24 577.79 199.80 578.45 205.10 C 581.64 198.78 580.37 191.50 582.25 184.89 C 579.53 182.16 575.51 181.90 571.88 181.79 C 572.15 183.67 572.44 185.56 572.72 187.45 C 569.80 186.90 571.45 183.12 570.96 181.02 C 566.92 180.55 562.87 180.20 558.81 180.06 M 545.07 182.20 C 545.69 190.91 544.19 199.53 543.14 208.14 C 544.09 206.68 545.01 205.20 545.91 203.70 C 545.91 204.60 545.93 206.40 545.93 207.30 C 549.86 206.19 553.92 205.65 558.00 205.88 C 558.81 197.52 557.95 189.10 556.73 180.82 C 555.26 180.86 553.80 180.92 552.35 181.00 C 551.43 186.84 551.13 193.16 548.00 198.33 C 548.49 192.45 550.77 186.87 551.02 180.94 C 549.02 181.31 547.04 181.74 545.07 182.20 Z" />
<path fill="#683d54" opacity="1.00" d=" M 472.31 175.68 C 471.34 157.69 467.56 139.28 471.93 121.46 C 471.16 141.95 470.67 163.07 477.03 182.89 C 477.79 182.88 479.32 182.87 480.08 182.87 C 480.55 182.87 481.48 182.87 481.95 182.87 C 483.97 182.84 486.01 182.80 488.04 182.77 C 487.49 175.43 486.59 168.08 487.47 160.73 C 487.86 168.10 487.89 175.54 490.26 182.63 C 492.62 182.93 494.98 183.26 497.35 183.63 C 490.90 185.69 484.41 183.27 477.85 184.26 C 480.53 193.89 484.57 203.51 491.03 211.23 C 492.17 213.22 493.35 215.19 494.60 217.12 C 494.71 216.43 494.91 215.04 495.01 214.35 L 495.90 214.66 C 495.93 215.55 495.98 217.32 496.01 218.21 C 496.44 218.48 497.30 219.02 497.73 219.28 C 497.59 219.66 497.32 220.41 497.19 220.79 C 498.19 222.20 499.19 223.60 500.19 225.02 C 497.51 224.82 494.83 224.69 492.14 224.57 C 485.13 222.93 477.69 223.37 470.69 224.85 C 468.76 225.27 466.82 225.65 464.90 226.06 C 455.22 227.15 437.52 233.53 448.81 245.23 C 448.88 245.78 449.03 246.87 449.10 247.42 C 444.58 244.77 442.00 240.03 438.07 236.72 C 436.49 235.95 434.84 235.34 433.20 234.74 C 432.69 239.96 432.76 245.26 431.48 250.37 C 429.07 234.05 433.77 217.93 436.82 202.10 C 433.55 191.85 433.53 180.74 433.16 169.86 C 433.53 166.47 433.96 163.08 434.17 159.68 C 436.32 170.62 432.32 183.26 437.94 193.38 C 437.70 193.79 437.23 194.61 437.00 195.02 C 438.99 203.35 442.27 211.28 445.64 219.13 C 445.84 209.74 445.67 200.36 445.99 190.97 C 444.24 191.34 442.47 191.66 440.70 191.91 L 441.40 191.56 L 442.08 191.24 C 445.21 190.32 447.42 188.16 447.11 184.68 C 447.52 185.75 447.95 186.80 448.41 187.85 C 448.85 187.86 449.71 187.88 450.15 187.89 C 450.60 187.88 451.51 187.85 451.97 187.84 L 453.14 187.85 C 451.73 188.65 450.30 189.42 448.86 190.18 C 452.29 201.01 457.48 211.60 465.15 220.04 C 467.11 220.09 469.07 220.09 471.04 219.97 C 478.43 219.26 485.84 218.78 493.27 218.81 C 490.90 211.58 484.14 211.05 477.56 211.77 C 480.73 211.03 483.98 210.82 487.24 210.77 C 482.97 202.44 478.50 194.15 475.86 185.12 C 474.28 185.09 472.70 185.08 471.13 185.07 C 469.41 196.14 470.08 207.33 470.60 218.45 C 465.29 208.50 471.59 194.78 468.25 184.75 C 469.06 183.87 469.87 182.99 470.69 182.11 C 471.35 183.94 473.43 183.67 474.99 184.02 C 474.54 181.14 474.69 177.78 472.31 175.68 M 447.29 190.81 C 446.83 201.80 446.77 212.83 447.33 223.82 C 452.59 223.33 457.63 221.54 462.85 220.78 C 455.63 212.02 450.62 201.63 447.29 190.81 M 437.51 205.76 C 435.47 214.39 434.11 223.15 433.20 231.96 C 435.75 230.42 438.15 228.63 440.90 227.44 C 440.41 227.27 439.44 226.92 438.96 226.75 C 441.20 226.04 443.46 225.37 445.69 224.60 C 443.86 218.26 440.52 211.72 437.51 205.76 Z" />
<path fill="#683d54" opacity="1.00" d=" M 600.37 168.72 C 600.85 171.83 601.11 174.97 601.07 178.12 C 601.44 196.60 600.08 215.62 592.54 232.74 L 591.79 233.33 C 592.86 227.39 595.58 221.90 596.62 215.96 C 600.38 200.44 599.68 184.52 600.37 168.72 Z" />
<path fill="#683d54" opacity="1.00" d=" M 401.33 314.95 C 383.26 309.58 371.97 290.12 374.40 271.79 C 374.92 276.78 376.61 281.51 378.47 286.14 L 377.11 286.27 C 378.40 291.23 379.85 297.72 384.95 299.98 C 383.51 295.51 379.49 292.33 378.69 287.62 C 385.37 297.35 394.01 305.98 401.33 314.95 Z" />
<path fill="#683d54" opacity="1.00" d=" M 547.33 395.36 C 550.52 397.83 544.70 400.14 547.33 395.36 Z" />
</g>
<g id="#fcda8fff">
<path fill="#fcda8f" opacity="1.00" d=" M 615.64 147.33 L 616.14 148.02 C 618.18 155.77 619.82 163.69 620.20 171.71 C 619.96 176.24 620.25 180.80 619.53 185.30 C 618.01 183.87 616.49 182.45 614.93 181.09 C 616.04 184.09 618.66 186.31 619.72 189.27 C 618.27 227.84 606.70 266.42 612.07 305.03 C 613.48 308.83 614.16 312.84 615.07 316.78 C 615.91 321.47 618.19 325.96 622.05 328.86 C 620.30 326.34 618.19 323.87 617.88 320.69 L 619.08 320.80 C 620.90 321.93 622.57 323.29 624.09 324.80 C 630.03 332.70 643.33 327.71 642.27 317.66 C 644.80 322.70 644.12 329.08 640.45 333.40 C 629.66 341.32 613.02 340.84 605.57 328.64 L 605.54 329.63 C 597.83 366.90 580.34 400.89 566.30 435.95 C 560.18 453.28 557.35 471.67 556.83 490.01 C 556.44 490.41 555.66 491.21 555.28 491.61 C 552.90 490.57 550.51 489.61 548.04 488.86 C 549.09 448.85 556.32 408.82 572.00 371.89 C 560.30 382.99 555.36 398.93 548.23 412.97 C 552.44 380.19 568.87 350.80 575.68 318.62 C 577.48 306.04 583.35 294.51 585.58 282.09 C 585.80 280.48 586.07 278.88 586.29 277.27 C 588.52 265.93 585.34 254.49 586.42 243.13 C 587.09 242.89 587.78 242.65 588.47 242.41 C 589.22 240.36 589.97 238.31 590.87 236.32 C 591.42 235.12 591.99 233.94 592.54 232.74 C 600.08 215.62 601.44 196.60 601.07 178.12 C 603.80 176.72 606.53 175.30 609.30 173.97 C 610.45 185.15 607.46 196.02 603.14 206.21 C 609.79 196.33 610.73 183.86 610.74 172.28 C 613.14 171.67 615.58 171.04 617.67 169.65 C 618.88 162.07 615.46 154.85 615.64 147.33 Z" />
<path fill="#fcda8f" opacity="1.00" d=" M 324.26 296.04 C 330.91 286.41 330.17 274.06 334.67 263.81 C 339.12 270.96 347.99 273.39 355.94 271.83 C 355.69 290.36 348.46 308.02 345.11 326.14 C 336.92 335.65 332.58 347.67 331.04 360.00 C 315.02 391.69 298.46 423.57 276.90 451.93 C 281.13 436.13 287.22 420.44 287.81 403.95 C 285.87 413.21 283.68 422.86 277.13 430.12 C 257.67 452.00 234.26 471.94 223.57 500.00 L 186.62 500.00 C 197.70 467.17 232.45 453.09 254.48 429.06 C 255.31 428.16 256.16 427.28 256.97 426.36 C 258.42 424.92 259.88 423.50 261.20 421.94 C 265.85 416.48 270.13 410.04 271.16 402.82 C 256.47 422.98 228.96 422.46 206.75 419.36 C 188.67 408.98 182.32 386.00 187.79 366.66 C 189.38 362.23 191.78 358.10 194.90 354.59 C 196.58 361.39 192.67 370.63 199.27 375.97 C 199.86 376.87 200.43 377.79 200.99 378.72 C 203.60 385.97 211.05 389.79 216.99 394.03 C 209.10 393.75 201.50 390.53 195.74 385.14 C 202.94 395.72 217.91 397.45 229.62 395.53 C 247.58 390.04 262.88 378.14 275.93 364.93 C 295.58 344.85 313.27 322.08 324.26 296.04 Z" />
<path fill="#fcda8f" opacity="1.00" d=" M 604.50 350.94 C 603.06 346.84 602.21 341.69 605.63 338.29 C 607.06 339.54 608.49 340.80 609.93 342.06 C 618.89 378.62 641.43 410.78 668.22 436.68 C 669.88 439.41 672.13 441.74 675.14 442.96 C 676.17 443.85 677.20 444.76 678.23 445.68 C 681.99 450.58 686.41 455.04 691.32 458.78 C 698.45 465.35 704.17 474.09 705.50 483.84 C 704.58 487.90 705.52 492.07 705.06 496.18 C 700.75 491.74 697.35 486.51 693.05 482.06 C 681.25 465.76 662.51 454.22 642.85 450.04 C 645.52 455.24 651.25 458.48 655.86 461.99 C 657.67 463.92 659.63 465.74 661.89 467.17 C 665.07 469.18 667.77 471.85 670.03 474.85 C 672.69 479.71 676.97 483.49 681.30 486.84 C 685.54 490.73 688.71 495.55 692.31 500.00 L 667.45 500.00 C 660.73 487.81 651.53 476.80 640.94 467.83 C 639.49 465.44 637.91 463.13 636.20 460.94 C 631.61 453.25 633.23 443.34 628.05 435.76 C 627.48 434.42 626.87 433.10 626.28 431.78 C 623.80 416.78 628.41 398.91 618.07 385.77 C 615.73 381.83 612.41 378.60 608.80 375.82 C 607.31 367.55 607.36 358.96 604.50 350.94 Z" />
<path fill="#fcda8f" opacity="1.00" d=" M 474.38 435.83 C 475.44 443.91 473.53 452.26 472.35 460.31 C 469.49 473.36 467.09 486.61 466.84 500.00 L 455.13 500.00 C 457.01 488.41 457.78 476.65 459.00 464.97 C 463.53 454.95 469.41 445.62 474.38 435.83 Z" />
</g>
<g id="#ecb8adff">
<path fill="#ecb8ad" opacity="1.00" d=" M 553.42 170.88 C 555.00 173.30 555.55 176.16 556.01 178.97 C 555.26 179.04 553.75 179.17 552.99 179.24 C 553.10 176.45 553.20 173.66 553.42 170.88 Z" />
<path fill="#ecb8ad" opacity="1.00" d=" M 545.07 182.20 C 547.04 181.74 549.02 181.31 551.02 180.94 C 550.77 186.87 548.49 192.45 548.00 198.33 C 551.13 193.16 551.43 186.84 552.35 181.00 C 553.80 180.92 555.26 180.86 556.73 180.82 C 557.95 189.10 558.81 197.52 558.00 205.88 C 553.92 205.65 549.86 206.19 545.93 207.30 C 545.93 206.40 545.91 204.60 545.91 203.70 C 545.01 205.20 544.09 206.68 543.14 208.14 C 544.19 199.53 545.69 190.91 545.07 182.20 Z" />
<path fill="#ecb8ad" opacity="1.00" d=" M 471.13 185.07 C 472.70 185.08 474.28 185.09 475.86 185.12 C 478.50 194.15 482.97 202.44 487.24 210.77 C 483.98 210.82 480.73 211.03 477.56 211.77 C 484.14 211.05 490.90 211.58 493.27 218.81 C 485.84 218.78 478.43 219.26 471.04 219.97 C 470.93 219.59 470.71 218.83 470.60 218.45 C 470.08 207.33 469.41 196.14 471.13 185.07 Z" />
<path fill="#ecb8ad" opacity="1.00" d=" M 490.15 185.99 C 494.83 196.85 500.29 207.39 506.02 217.81 C 505.87 221.89 506.38 225.95 506.91 230.00 C 502.48 225.46 501.58 217.67 495.90 214.66 L 495.01 214.35 C 494.91 215.04 494.71 216.43 494.60 217.12 C 493.35 215.19 492.17 213.22 491.03 211.23 C 492.28 211.31 493.54 211.39 494.81 211.48 C 492.74 203.09 491.57 194.51 490.15 185.99 Z" />
<path fill="#ecb8ad" opacity="1.00" d=" M 447.29 190.81 C 450.62 201.63 455.63 212.02 462.85 220.78 C 457.63 221.54 452.59 223.33 447.33 223.82 C 446.77 212.83 446.83 201.80 447.29 190.81 Z" />
<path fill="#ecb8ad" opacity="1.00" d=" M 437.51 205.76 C 440.52 211.72 443.86 218.26 445.69 224.60 C 443.46 225.37 441.20 226.04 438.96 226.75 C 439.44 226.92 440.41 227.27 440.90 227.44 C 438.15 228.63 435.75 230.42 433.20 231.96 C 434.11 223.15 435.47 214.39 437.51 205.76 Z" />
<path fill="#ecb8ad" opacity="1.00" d=" M 545.79 208.62 C 549.62 206.95 553.86 206.99 557.95 207.04 C 557.90 208.91 557.85 210.78 557.80 212.66 C 555.20 212.93 552.61 213.30 550.06 213.85 C 550.79 212.32 551.12 210.66 551.30 208.99 C 549.46 208.84 547.62 208.69 545.79 208.62 Z" />
<path fill="#ecb8ad" opacity="1.00" d=" M 408.73 289.23 C 411.19 285.91 411.46 281.76 411.72 277.80 C 410.60 288.76 414.92 300.19 422.13 308.28 C 420.34 300.38 413.91 294.29 413.00 286.08 C 420.73 293.97 434.50 305.23 425.85 317.10 C 428.48 333.26 447.29 339.11 459.03 347.94 C 466.95 350.74 465.92 359.95 463.09 366.20 C 456.06 365.99 448.99 365.58 442.12 364.01 C 443.86 359.56 445.46 355.04 446.23 350.31 C 449.54 351.97 452.79 353.79 456.35 354.88 C 443.36 344.59 425.19 339.23 415.99 323.99 C 409.44 311.41 394.46 299.33 402.61 283.86 C 402.62 294.54 409.34 303.56 415.02 312.03 C 413.34 301.74 402.97 294.14 404.68 282.90 C 405.94 285.06 407.27 287.19 408.73 289.23 Z" />
<path fill="#ecb8ad" opacity="1.00" d=" M 436.02 283.61 C 443.06 287.10 450.22 290.57 458.12 291.55 C 457.88 291.86 457.39 292.48 457.14 292.79 C 460.09 294.52 463.20 295.94 466.15 297.67 C 460.26 297.57 454.53 296.17 448.79 295.04 C 450.76 298.10 452.91 301.03 454.80 304.15 C 454.33 304.10 453.39 304.00 452.92 303.95 L 453.05 304.87 C 447.91 302.00 443.15 298.38 439.27 293.94 L 439.58 294.30 C 438.69 290.64 437.22 287.17 436.02 283.61 Z" />
<path fill="#ecb8ad" opacity="1.00" d=" M 487.00 329.75 C 489.69 330.64 492.39 331.59 494.84 333.05 C 491.50 338.54 487.71 344.50 488.17 351.20 C 489.90 347.87 491.03 344.29 492.72 340.95 C 492.76 344.97 492.22 348.96 491.82 352.96 C 489.63 355.16 487.29 357.22 484.90 359.21 C 483.57 358.51 482.28 357.76 481.03 356.96 C 485.17 348.65 492.89 339.24 487.00 329.75 Z" />
</g>
<g id="#e8cc85ed">
<path fill="#e8cc85" opacity="0.93" d=" M 650.08 187.99 C 651.11 187.47 652.12 186.93 653.13 186.36 L 652.46 186.80 C 653.14 186.89 654.51 187.08 655.19 187.18 C 654.13 188.55 653.09 189.94 652.12 191.38 L 652.95 191.03 C 644.14 198.59 630.31 197.75 621.63 190.39 C 621.45 189.17 621.15 187.89 621.87 186.78 C 625.02 187.77 628.13 188.89 631.30 189.86 C 630.90 190.05 630.10 190.43 629.71 190.62 C 636.82 191.50 645.11 192.43 651.24 187.93 L 650.08 187.99 Z" />
</g>
<g id="#ffe7deff">
<path fill="#ffe7de" opacity="1.00" d=" M 565.21 210.22 C 567.38 206.14 568.28 201.55 570.15 197.35 C 571.73 201.66 572.47 206.24 572.41 210.83 C 569.88 211.11 567.34 211.19 564.82 211.00 L 565.21 210.22 Z" />
<path fill="#ffe7de" opacity="1.00" d=" M 526.76 233.86 C 533.15 223.86 536.60 212.46 541.04 201.58 C 541.83 206.42 540.83 211.25 540.24 216.05 C 542.06 213.58 543.18 210.36 545.79 208.62 C 547.62 208.69 549.46 208.84 551.30 208.99 C 551.12 210.66 550.79 212.32 550.06 213.85 C 547.72 214.29 545.39 214.79 543.08 215.33 C 543.48 215.52 544.27 215.90 544.66 216.09 C 543.62 217.67 542.62 219.27 541.66 220.90 C 545.75 220.47 549.78 219.69 553.82 218.95 C 553.77 220.54 553.72 222.13 553.68 223.73 C 536.47 221.32 542.17 247.14 556.02 244.46 C 560.58 246.97 566.45 246.55 570.96 244.12 C 572.03 244.34 573.09 244.59 574.16 244.86 C 573.22 244.11 572.29 243.36 571.36 242.61 C 572.21 240.69 573.01 238.74 573.77 236.78 C 576.31 230.84 576.82 224.12 575.42 217.83 C 576.41 218.47 577.40 219.10 578.40 219.74 C 578.25 221.93 578.10 224.13 577.97 226.33 C 580.36 223.27 582.77 220.16 585.96 217.87 C 576.36 238.18 585.19 259.69 584.84 280.65 C 582.90 290.60 577.63 299.37 571.25 307.10 C 570.16 308.12 569.08 309.15 567.98 310.17 C 563.73 313.83 559.39 317.37 555.04 320.91 C 553.95 321.59 552.86 322.27 551.78 322.96 C 550.56 323.72 549.36 324.50 548.15 325.25 C 546.07 326.36 544.03 327.53 542.08 328.85 C 538.10 331.24 533.55 332.80 530.17 336.07 C 514.63 338.10 499.44 332.18 485.09 326.94 C 476.81 317.06 464.75 311.94 454.80 304.15 C 452.91 301.03 450.76 298.10 448.79 295.04 C 454.53 296.17 460.26 297.57 466.15 297.67 C 463.20 295.94 460.09 294.52 457.14 292.79 C 457.39 292.48 457.88 291.86 458.12 291.55 C 463.98 291.84 471.07 293.92 476.23 290.51 C 469.78 291.02 463.60 289.06 458.09 285.82 C 456.61 284.04 454.88 282.50 452.99 281.18 C 450.03 278.49 447.14 275.73 444.58 272.65 L 444.14 273.11 C 444.07 272.67 443.92 271.78 443.84 271.33 L 443.21 271.42 C 442.08 269.66 440.97 267.88 439.78 266.16 C 439.00 256.36 436.46 246.60 438.07 236.72 C 442.00 240.03 444.58 244.77 449.10 247.42 C 449.03 246.87 448.88 245.78 448.81 245.23 C 451.74 253.86 461.78 255.75 469.83 256.57 C 476.52 257.59 483.14 255.83 489.69 254.67 C 489.82 254.04 490.08 252.78 490.21 252.15 C 495.62 244.18 495.30 233.36 492.14 224.57 C 494.83 224.69 497.51 224.82 500.19 225.02 C 499.19 223.60 498.19 222.20 497.19 220.79 C 497.32 220.41 497.59 219.66 497.73 219.28 C 497.30 219.02 496.44 218.48 496.01 218.21 C 495.98 217.32 495.93 215.55 495.90 214.66 C 501.58 217.67 502.48 225.46 506.91 230.00 C 506.38 225.95 505.87 221.89 506.02 217.81 C 507.49 220.14 509.21 222.31 510.92 224.48 C 512.79 227.03 514.64 229.59 516.52 232.13 C 517.48 234.55 518.73 236.83 519.89 239.16 C 519.98 241.13 520.07 243.10 520.17 245.06 C 521.10 243.51 522.03 241.96 522.98 240.42 C 524.34 238.30 525.59 236.10 526.76 233.86 M 539.76 257.77 C 540.71 260.50 541.86 263.18 542.25 266.08 C 543.02 265.04 543.79 264.00 544.56 262.97 C 543.24 261.00 541.75 259.11 539.76 257.77 M 512.79 308.66 C 516.61 306.56 520.99 306.29 525.16 305.37 C 520.94 305.16 515.68 304.98 512.79 308.66 Z" />
<path fill="#ffe7de" opacity="1.00" d=" M 408.14 255.92 C 408.61 256.27 409.54 256.97 410.01 257.32 C 410.30 259.25 410.42 261.20 410.48 263.16 C 410.63 260.66 410.90 258.17 411.28 255.70 C 411.66 257.05 412.02 258.40 412.37 259.77 C 413.15 258.84 413.95 257.92 414.75 257.01 C 415.64 258.32 416.54 259.64 417.41 260.97 C 417.84 260.44 418.69 259.39 419.11 258.87 C 424.83 273.71 419.34 293.88 433.93 305.98 C 425.98 293.09 420.71 278.35 423.19 262.86 L 424.10 262.95 C 426.02 264.98 426.89 267.68 427.75 270.27 C 427.95 268.69 428.17 267.10 428.41 265.53 L 428.92 266.07 C 432.73 275.25 433.41 285.58 439.27 293.94 C 443.15 298.38 447.91 302.00 453.05 304.87 C 465.37 313.81 482.14 319.83 487.76 335.24 C 488.31 346.73 478.91 355.57 474.77 365.74 C 470.90 366.24 466.98 366.33 463.09 366.20 C 465.92 359.95 466.95 350.74 459.03 347.94 C 447.29 339.11 428.48 333.26 425.85 317.10 C 434.50 305.23 420.73 293.97 413.00 286.08 C 412.96 280.97 413.30 275.83 412.60 270.74 C 412.24 273.08 411.90 275.43 411.72 277.80 C 411.46 281.76 411.19 285.91 408.73 289.23 C 407.27 287.19 405.94 285.06 404.68 282.90 C 404.64 276.02 404.87 269.16 405.23 262.29 C 406.06 260.11 407.04 257.98 408.14 255.92 M 413.00 260.92 C 413.13 264.04 412.07 267.46 413.63 270.36 C 414.07 267.25 414.03 264.11 413.94 260.98 L 413.00 260.92 Z" />
</g>
<g id="#8562bcff">
<path fill="#8562bc" opacity="1.00" d=" M 559.09 218.15 C 564.04 218.32 568.99 218.43 573.95 218.25 C 574.38 222.40 574.55 226.61 573.92 230.76 C 572.74 230.76 571.56 230.78 570.40 230.81 C 569.85 233.63 569.25 237.04 566.04 237.94 C 564.22 236.96 563.04 235.20 561.69 233.71 C 559.00 234.25 557.26 236.59 556.60 239.12 C 555.50 234.91 555.38 230.52 556.05 226.24 C 561.24 227.51 563.00 220.81 559.09 218.15 Z" />
<path fill="#8562bc" opacity="1.00" d=" M 472.08 226.00 C 482.31 223.01 496.44 224.68 492.34 238.90 C 491.21 238.23 490.07 237.58 488.94 236.94 C 483.53 237.68 486.19 246.84 480.14 245.97 C 476.34 242.95 470.26 244.22 468.61 248.94 C 466.48 245.01 465.39 240.68 464.68 236.30 C 470.97 238.49 474.28 231.02 472.08 226.00 Z" />
</g>
<g id="#4a1a9dff">
<path fill="#4a1a9d" opacity="1.00" d=" M 470.69 224.85 C 477.69 223.37 485.13 222.93 492.14 224.57 C 495.30 233.36 495.62 244.18 490.21 252.15 C 491.20 247.79 492.17 243.39 492.34 238.90 C 496.44 224.68 482.31 223.01 472.08 226.00 C 471.73 225.71 471.04 225.14 470.69 224.85 Z" />
</g>
<g id="#c8cbfbff">
<path fill="#c8cbfb" opacity="1.00" d=" M 570.40 230.81 C 571.56 230.78 572.74 230.76 573.92 230.76 C 573.60 232.96 573.27 235.16 573.08 237.38 L 573.77 236.78 C 573.01 238.74 572.21 240.69 571.36 242.61 C 572.29 243.36 573.22 244.11 574.16 244.86 C 573.09 244.59 572.03 244.34 570.96 244.12 C 565.54 244.70 557.30 247.13 556.60 239.12 C 557.26 236.59 559.00 234.25 561.69 233.71 C 563.04 235.20 564.22 236.96 566.04 237.94 C 569.25 237.04 569.85 233.63 570.40 230.81 Z" />
<path fill="#c8cbfb" opacity="1.00" d=" M 480.14 245.97 C 486.19 246.84 483.53 237.68 488.94 236.94 C 490.07 237.58 491.21 238.23 492.34 238.90 C 492.17 243.39 491.20 247.79 490.21 252.15 C 485.16 255.57 477.99 256.74 472.08 255.20 C 471.72 255.42 471.00 255.86 470.64 256.07 C 470.75 255.63 470.95 254.75 471.06 254.32 C 470.36 252.47 469.48 250.70 468.61 248.94 C 470.26 244.22 476.34 242.95 480.14 245.97 Z" />
</g>
<g id="#b5476cff">
<path fill="#b5476c" opacity="1.00" d=" M 354.14 319.71 C 355.75 310.79 364.14 305.00 372.53 303.21 C 377.25 314.21 388.32 320.84 399.60 323.43 C 412.99 326.84 423.85 337.17 429.03 349.82 C 427.75 350.20 426.46 350.58 425.19 350.98 C 407.08 341.56 392.83 320.70 370.57 322.26 C 388.78 331.89 397.03 351.46 411.92 364.35 C 410.35 366.08 410.39 368.42 410.03 370.60 C 394.81 357.14 386.01 336.02 366.03 327.91 C 359.72 323.49 351.23 325.84 346.98 331.92 C 324.52 358.59 335.45 396.86 352.70 423.33 C 353.65 426.22 357.97 429.32 356.13 432.22 C 351.06 428.28 346.41 421.65 339.10 423.04 C 337.41 430.84 340.63 438.46 342.04 446.04 C 332.09 432.11 333.67 414.03 331.41 397.87 C 330.55 380.27 332.12 362.36 336.31 345.24 C 340.28 334.91 346.62 321.30 359.30 320.82 C 357.59 320.41 355.86 320.05 354.14 319.71 Z" />
<path fill="#b5476c" opacity="1.00" d=" M 548.15 325.25 C 549.36 324.50 550.56 323.72 551.78 322.96 C 552.06 323.50 552.64 324.57 552.93 325.11 C 544.78 353.25 541.65 383.16 535.93 411.33 C 535.40 410.22 534.87 409.13 534.28 408.06 L 535.06 408.03 C 535.39 407.83 536.04 407.43 536.36 407.23 C 536.81 389.59 540.15 372.20 543.94 355.02 C 541.29 360.32 540.05 366.55 535.86 370.93 L 535.15 371.37 C 541.63 356.81 546.96 341.73 549.73 325.98 C 549.16 325.91 548.03 325.76 547.47 325.69 L 548.15 325.25 Z" />
<path fill="#b5476c" opacity="1.00" d=" M 530.17 336.07 C 533.55 332.80 538.10 331.24 542.08 328.85 L 543.20 328.73 C 540.51 332.48 535.51 333.21 532.33 336.43 C 533.44 348.39 529.07 359.73 527.72 371.25 C 525.84 371.11 523.98 370.83 522.15 370.47 C 522.34 370.12 522.74 369.42 522.94 369.06 C 527.89 360.30 528.84 349.70 528.53 339.79 C 528.02 341.88 527.59 343.99 527.29 346.13 C 527.37 343.80 527.33 341.48 527.14 339.17 L 527.07 338.33 C 528.35 337.95 529.25 336.98 530.17 336.07 Z" />
<path fill="#b5476c" opacity="1.00" d=" M 349.87 400.47 C 347.89 385.87 343.94 369.75 350.58 355.85 C 352.24 363.41 352.62 371.18 354.17 378.76 C 357.32 401.25 371.74 422.19 392.18 432.21 C 390.30 434.37 388.54 436.62 386.78 438.87 C 373.80 432.67 363.98 421.99 355.69 410.63 C 360.46 424.68 373.56 432.99 385.23 440.90 C 376.24 453.22 368.64 466.45 361.54 479.91 C 361.02 477.62 360.45 475.29 358.86 473.50 C 358.90 474.92 358.99 476.35 359.15 477.78 C 358.71 478.34 357.83 479.45 357.38 480.01 C 354.23 473.77 352.56 464.86 345.15 462.36 C 337.65 470.16 336.74 482.79 336.92 493.28 C 332.64 478.19 338.84 461.17 337.35 446.93 C 337.47 446.39 337.71 445.30 337.83 444.75 C 343.48 451.43 348.19 458.93 354.24 465.23 C 353.56 461.84 351.69 458.89 349.78 456.08 C 355.67 458.03 356.65 465.49 359.87 470.14 C 360.71 470.45 361.55 470.77 362.39 471.09 C 365.91 461.21 371.76 452.40 377.83 443.94 C 364.53 432.61 352.48 418.49 349.87 400.47 Z" />
<path fill="#b5476c" opacity="1.00" d=" M 595.16 392.36 C 596.34 387.34 597.69 381.89 601.99 378.57 C 604.53 383.35 605.55 388.88 604.39 394.21 C 604.08 393.04 603.76 391.89 603.43 390.73 C 603.12 404.35 598.36 417.29 593.61 429.88 L 594.81 429.85 C 589.62 444.34 578.06 455.19 571.56 468.86 C 569.68 475.99 578.93 474.41 582.36 471.38 C 592.65 464.09 605.29 463.52 616.54 458.67 C 616.95 458.83 617.78 459.15 618.19 459.32 C 605.54 464.89 592.20 470.77 582.81 481.25 C 594.21 475.79 605.90 469.19 619.00 469.86 C 628.87 470.58 634.59 480.56 637.13 489.08 C 632.38 489.60 627.84 487.92 624.08 485.12 L 625.18 485.21 C 610.20 470.97 590.63 483.04 574.95 489.01 C 576.05 487.32 577.15 485.62 578.19 483.89 C 574.83 487.13 571.97 491.34 566.80 491.53 C 567.19 491.71 567.96 492.07 568.34 492.25 C 567.78 492.35 566.66 492.54 566.10 492.64 C 565.06 492.30 564.02 491.97 562.98 491.66 C 562.18 482.10 567.81 473.27 567.53 463.89 C 569.71 452.29 571.66 440.59 572.25 428.78 C 574.51 438.75 571.61 449.14 570.35 459.12 C 581.13 437.94 589.67 415.57 595.16 392.36 Z" />
<path fill="#b5476c" opacity="1.00" d=" M 389.77 483.39 C 402.21 453.50 386.57 415.31 408.56 388.28 C 416.43 403.15 434.83 407.09 450.24 408.17 C 444.71 409.51 438.98 409.20 433.35 408.93 C 429.26 408.13 424.84 405.14 420.73 406.66 C 415.42 413.85 417.47 423.50 416.84 431.86 C 408.67 427.12 411.35 413.62 405.95 406.72 C 398.63 420.93 402.01 437.79 399.29 453.14 C 399.91 469.76 392.92 485.05 386.66 500.00 L 375.97 500.00 C 376.88 480.32 377.11 459.14 392.80 444.74 C 393.46 457.70 391.97 470.64 389.77 483.39 Z" />
<path fill="#b5476c" opacity="1.00" d=" M 532.95 437.82 C 533.90 436.81 534.87 435.83 535.86 434.87 C 535.87 451.89 536.23 469.00 538.69 485.87 C 537.03 486.08 535.37 486.34 533.72 486.57 C 520.04 483.64 506.11 488.96 497.64 500.00 L 490.19 500.00 C 490.40 493.67 490.43 487.33 490.24 481.00 C 490.99 482.85 490.95 484.87 491.13 486.83 C 506.84 481.97 518.44 469.06 529.37 457.39 C 534.33 453.24 532.23 446.58 531.71 441.09 C 531.32 441.16 530.52 441.29 530.12 441.35 C 531.08 440.18 531.98 438.98 532.95 437.82 Z" />
<path fill="#b5476c" opacity="1.00" d=" M 503.30 443.31 C 503.82 442.40 504.36 441.49 504.91 440.60 C 506.36 441.85 507.82 443.09 509.32 444.30 C 509.18 443.84 508.92 442.92 508.78 442.46 C 509.83 442.65 510.88 442.85 511.94 443.05 C 511.20 443.75 510.48 444.48 509.78 445.22 C 510.07 445.42 510.65 445.83 510.94 446.03 C 499.64 450.00 498.56 466.89 488.92 474.27 L 489.00 473.16 C 494.60 463.62 498.77 453.38 503.30 443.31 Z" />
<path fill="#b5476c" opacity="1.00" d=" M 557.83 488.87 C 558.56 475.37 559.99 461.76 563.87 448.76 C 564.15 455.60 563.82 462.58 565.75 469.23 C 564.01 477.04 561.71 484.75 560.98 492.75 C 559.23 492.50 557.50 492.24 555.76 492.02 L 556.15 492.81 C 555.77 492.67 555.02 492.39 554.65 492.25 L 555.28 491.61 C 555.66 491.21 556.44 490.41 556.83 490.01 C 557.08 489.72 557.58 489.16 557.83 488.87 Z" />
<path fill="#b5476c" opacity="1.00" d=" M 469.99 479.91 C 473.98 482.14 477.97 484.36 482.06 486.41 C 481.83 490.92 480.07 495.62 481.97 500.00 L 467.87 500.00 C 468.16 493.27 468.99 486.57 469.99 479.91 Z" />
<path fill="#b5476c" opacity="1.00" d=" M 563.84 493.83 C 580.48 499.06 595.41 486.35 611.90 489.07 C 617.66 490.60 626.20 492.75 626.52 500.00 L 584.60 500.00 C 577.77 497.74 570.06 497.68 563.84 493.83 Z" />
</g>
<g id="#d56b96ff">
<path fill="#d56b96" opacity="1.00" d=" M 370.57 322.26 C 392.83 320.70 407.08 341.56 425.19 350.98 C 418.51 352.54 414.82 358.69 411.92 364.35 C 397.03 351.46 388.78 331.89 370.57 322.26 Z" />
<path fill="#d56b96" opacity="1.00" d=" M 346.98 331.92 C 351.23 325.84 359.72 323.49 366.03 327.91 C 386.01 336.02 394.81 357.14 410.03 370.60 C 408.87 375.85 408.41 381.21 407.71 386.53 C 407.39 386.86 406.75 387.52 406.43 387.84 C 402.03 373.33 389.34 363.54 378.71 353.64 C 379.19 354.75 379.70 355.86 380.25 356.95 C 375.21 366.88 362.85 373.37 357.39 383.74 C 356.29 382.09 355.18 380.45 354.17 378.76 C 352.62 371.18 352.24 363.41 350.58 355.85 C 343.94 369.75 347.89 385.87 349.87 400.47 C 349.14 402.57 348.65 404.75 348.45 406.98 C 332.58 385.20 332.53 354.41 346.98 331.92 Z" />
<path fill="#d56b96" opacity="1.00" d=" M 605.54 329.63 C 605.90 332.41 604.50 335.82 606.83 338.00 C 606.53 338.08 605.93 338.22 605.63 338.29 C 602.21 341.69 603.06 346.84 604.50 350.94 C 604.36 351.30 604.09 352.01 603.96 352.36 C 603.51 351.19 603.06 350.03 602.59 348.87 C 598.82 358.20 596.20 368.04 593.15 377.65 C 596.13 377.18 599.23 377.15 601.99 378.57 C 597.69 381.89 596.34 387.34 595.16 392.36 C 589.67 415.57 581.13 437.94 570.35 459.12 C 571.61 449.14 574.51 438.75 572.25 428.78 C 572.05 428.28 571.64 427.27 571.44 426.76 C 570.14 430.29 568.72 433.77 567.19 437.21 C 566.97 436.89 566.52 436.26 566.30 435.95 C 580.34 400.89 597.83 366.90 605.54 329.63 Z" />
<path fill="#d56b96" opacity="1.00" d=" M 450.24 408.17 C 451.79 408.04 453.36 407.93 454.93 407.80 C 444.32 441.37 429.95 475.66 403.62 500.00 L 389.68 500.00 C 396.14 487.90 401.20 475.17 405.11 462.07 C 416.10 446.02 423.56 428.63 427.75 409.71 C 429.59 409.29 431.46 409.01 433.35 408.93 C 438.98 409.20 444.71 409.51 450.24 408.17 Z" />
<path fill="#d56b96" opacity="1.00" d=" M 574.22 470.74 C 587.20 465.17 601.84 450.61 616.54 458.67 C 605.29 463.52 592.65 464.09 582.36 471.38 C 578.93 474.41 569.68 475.99 571.56 468.86 C 572.44 469.48 573.32 470.11 574.22 470.74 Z" />
</g>
<g id="#f08abaff">
<path fill="#f08aba" opacity="1.00" d=" M 542.08 328.85 C 544.03 327.53 546.07 326.36 548.15 325.25 L 547.47 325.69 C 548.03 325.76 549.16 325.91 549.73 325.98 C 546.96 341.73 541.63 356.81 535.15 371.37 C 532.89 372.25 530.15 371.12 527.72 371.25 C 529.07 359.73 533.44 348.39 532.33 336.43 C 535.51 333.21 540.51 332.48 543.20 328.73 L 542.08 328.85 Z" />
<path fill="#f08aba" opacity="1.00" d=" M 535.86 370.93 C 540.05 366.55 541.29 360.32 543.94 355.02 C 540.15 372.20 536.81 389.59 536.36 407.23 C 536.04 407.43 535.39 407.83 535.06 408.03 C 527.48 396.13 541.44 383.67 535.86 370.93 Z" />
<path fill="#f08aba" opacity="1.00" d=" M 510.94 446.03 C 516.45 441.32 524.14 445.24 530.12 441.35 C 530.52 441.29 531.32 441.16 531.71 441.09 C 532.23 446.58 534.33 453.24 529.37 457.39 C 518.44 469.06 506.84 481.97 491.13 486.83 C 490.95 484.87 490.99 482.85 490.24 481.00 C 489.81 480.66 488.96 479.96 488.54 479.62 C 488.68 478.53 488.83 477.45 488.99 476.38 C 488.58 476.02 487.77 475.32 487.36 474.96 C 487.91 474.36 488.45 473.76 489.00 473.16 L 488.92 474.27 C 498.56 466.89 499.64 450.00 510.94 446.03 M 500.83 466.32 C 504.02 464.68 506.72 462.05 508.30 458.82 C 505.41 460.86 502.77 463.34 500.83 466.32 Z" />
<path fill="#f08aba" opacity="1.00" d=" M 472.14 468.06 C 475.70 472.73 480.53 476.00 485.98 478.11 C 483.98 480.51 482.11 483.14 482.06 486.41 C 477.97 484.36 473.98 482.14 469.99 479.91 C 470.52 475.93 471.11 471.95 472.14 468.06 Z" />
</g>
<g id="#ca5f87ff">
<path fill="#ca5f87" opacity="1.00" d=" M 352.70 423.33 C 335.45 396.86 324.52 358.59 346.98 331.92 C 332.53 354.41 332.58 385.20 348.45 406.98 C 348.65 404.75 349.14 402.57 349.87 400.47 C 352.48 418.49 364.53 432.61 377.83 443.94 C 371.76 452.40 365.91 461.21 362.39 471.09 C 361.55 470.77 360.71 470.45 359.87 470.14 C 356.65 465.49 355.67 458.03 349.78 456.08 C 346.89 452.99 344.15 449.72 342.04 446.04 C 340.63 438.46 337.41 430.84 339.10 423.04 C 346.41 421.65 351.06 428.28 356.13 432.22 C 357.97 429.32 353.65 426.22 352.70 423.33 Z" />
<path fill="#ca5f87" opacity="1.00" d=" M 380.25 356.95 C 389.88 366.48 401.26 375.46 405.39 388.94 C 396.31 400.83 394.47 416.11 393.58 430.58 C 393.23 430.99 392.53 431.81 392.18 432.21 C 371.74 422.19 357.32 401.25 354.17 378.76 C 355.18 380.45 356.29 382.09 357.39 383.74 C 362.85 373.37 375.21 366.88 380.25 356.95 Z" />
<path fill="#ca5f87" opacity="1.00" d=" M 420.73 406.66 C 424.84 405.14 429.26 408.13 433.35 408.93 C 431.46 409.01 429.59 409.29 427.75 409.71 C 423.56 428.63 416.10 446.02 405.11 462.07 C 401.20 475.17 396.14 487.90 389.68 500.00 L 386.66 500.00 C 392.92 485.05 399.91 469.76 399.29 453.14 C 402.01 437.79 398.63 420.93 405.95 406.72 C 411.35 413.62 408.67 427.12 416.84 431.86 C 417.47 423.50 415.42 413.85 420.73 406.66 Z" />
<path fill="#ca5f87" opacity="1.00" d=" M 355.85 500.00 C 364.90 476.03 377.29 452.75 393.85 433.19 C 393.68 437.05 393.13 440.89 392.80 444.74 C 377.11 459.14 376.88 480.32 375.97 500.00 L 355.85 500.00 Z" />
<path fill="#ca5f87" opacity="1.00" d=" M 345.15 462.36 C 352.56 464.86 354.23 473.77 357.38 480.01 C 357.83 479.45 358.71 478.34 359.15 477.78 C 361.20 483.37 357.91 488.66 355.67 493.61 C 353.41 492.24 351.22 490.72 348.77 489.70 C 349.86 492.55 352.64 494.03 354.67 496.13 C 354.50 497.42 354.33 498.71 354.12 500.00 L 337.91 500.00 C 337.58 497.75 337.25 495.51 336.92 493.28 C 336.74 482.79 337.65 470.16 345.15 462.36 Z" />
</g>
<g id="#c5adc1ff">
<path fill="#c5adc1" opacity="1.00" d=" M 494.28 350.02 C 494.69 344.24 491.72 337.81 496.67 333.21 C 506.43 336.53 516.72 338.70 527.07 338.33 L 527.14 339.17 C 526.41 339.12 524.94 339.01 524.21 338.96 C 522.95 349.63 516.73 358.55 510.68 367.01 C 507.33 360.73 501.21 351.95 492.98 354.83 C 496.52 350.16 500.22 345.03 499.96 338.86 C 498.16 342.63 496.80 346.64 494.28 350.02 Z" />
<path fill="#c5adc1" opacity="1.00" d=" M 415.26 363.80 C 418.12 351.10 433.70 350.83 444.14 351.18 C 443.60 355.50 442.18 359.68 440.01 363.46 C 434.89 362.48 430.26 360.05 425.52 358.00 C 437.73 369.07 456.56 367.65 472.10 368.20 C 465.06 371.30 457.63 374.65 452.94 381.03 C 452.53 380.99 451.70 380.91 451.29 380.87 C 438.37 378.23 423.56 374.92 415.26 363.80 Z" />
<path fill="#c5adc1" opacity="1.00" d=" M 484.75 360.99 C 489.06 358.63 493.80 356.07 498.83 356.11 C 497.90 364.77 496.27 373.40 493.68 381.73 C 493.37 382.72 493.06 383.71 492.75 384.71 C 489.80 384.92 486.85 385.19 483.98 385.90 C 484.12 378.61 489.46 371.87 487.36 364.55 C 486.97 366.42 486.65 368.31 486.27 370.19 C 486.62 367.04 486.01 363.88 484.75 360.99 Z" />
<path fill="#c5adc1" opacity="1.00" d=" M 508.37 366.94 C 510.03 369.06 511.25 371.48 512.16 374.03 C 509.98 375.24 507.80 376.43 505.60 377.58 L 504.78 377.09 C 505.42 375.33 506.04 373.57 506.65 371.80 C 507.25 370.18 507.79 368.55 508.37 366.94 Z" />
<path fill="#c5adc1" opacity="1.00" d=" M 411.03 377.15 C 417.56 384.89 427.39 388.61 436.86 391.31 C 438.95 391.82 441.06 392.25 443.19 392.63 C 436.41 393.05 430.94 398.20 424.76 400.76 C 415.36 397.07 406.24 388.01 411.03 377.15 Z" />
<path fill="#c5adc1" opacity="1.00" d=" M 489.33 412.13 C 491.18 411.37 493.03 410.62 494.89 409.88 C 500.99 418.68 503.00 430.23 504.91 440.60 C 504.36 441.49 503.82 442.40 503.30 443.31 C 500.38 433.34 495.93 423.65 489.10 415.75 C 489.19 414.54 489.26 413.33 489.33 412.13 Z" />
<path fill="#c5adc1" opacity="1.00" d=" M 482.24 411.15 C 484.12 411.51 486.01 411.87 487.91 412.24 C 486.24 419.81 484.83 427.59 486.44 435.31 C 486.63 434.90 487.01 434.06 487.20 433.65 C 487.25 434.21 487.34 435.33 487.39 435.88 C 488.09 445.91 488.13 456.03 488.54 466.06 C 488.31 467.81 487.96 469.54 487.58 471.28 C 487.43 452.46 479.58 433.90 484.38 415.08 C 483.76 414.69 482.51 413.91 481.89 413.51 C 481.98 412.92 482.15 411.74 482.24 411.15 Z" />
</g>
<g id="#f691c2ff">
<path fill="#f691c2" opacity="1.00" d=" M 593.15 377.65 C 596.20 368.04 598.82 358.20 602.59 348.87 C 603.06 350.03 603.51 351.19 603.96 352.36 C 606.25 361.79 607.00 371.46 607.42 381.13 C 607.75 379.32 608.18 377.55 608.80 375.82 C 612.41 378.60 615.73 381.83 618.07 385.77 C 625.57 401.27 626.07 419.53 622.14 436.06 C 622.83 434.41 623.52 432.77 624.22 431.14 C 624.74 431.30 625.77 431.62 626.28 431.78 C 626.87 433.10 627.48 434.42 628.05 435.76 C 631.48 447.65 632.63 459.95 634.57 472.12 C 634.96 468.08 634.07 464.06 633.99 460.03 C 634.54 460.25 635.65 460.71 636.20 460.94 C 637.91 463.13 639.49 465.44 640.94 467.83 C 644.03 473.66 650.38 477.35 651.78 484.23 C 652.05 487.39 652.08 490.58 651.69 493.75 C 651.03 495.83 650.38 497.92 649.71 500.00 L 626.52 500.00 C 626.20 492.75 617.66 490.60 611.90 489.07 C 595.41 486.35 580.48 499.06 563.84 493.83 C 564.41 493.53 565.54 492.94 566.10 492.64 C 566.66 492.54 567.78 492.35 568.34 492.25 C 586.73 488.47 605.54 471.67 624.08 485.12 C 627.84 487.92 632.38 489.60 637.13 489.08 C 634.59 480.56 628.87 470.58 619.00 469.86 C 605.90 469.19 594.21 475.79 582.81 481.25 C 592.20 470.77 605.54 464.89 618.19 459.32 C 617.78 459.15 616.95 458.83 616.54 458.67 C 601.84 450.61 587.20 465.17 574.22 470.74 C 573.32 470.11 572.44 469.48 571.56 468.86 C 578.06 455.19 589.62 444.34 594.81 429.85 C 599.80 418.55 603.26 406.54 604.39 394.21 C 605.55 388.88 604.53 383.35 601.99 378.57 C 599.23 377.15 596.13 377.18 593.15 377.65 Z" />
<path fill="#f691c2" opacity="1.00" d=" M 571.44 426.76 C 571.64 427.27 572.05 428.28 572.25 428.78 C 571.66 440.59 569.71 452.29 567.53 463.89 C 566.92 465.66 566.28 467.42 565.75 469.23 C 563.82 462.58 564.15 455.60 563.87 448.76 C 564.66 444.82 565.71 440.94 567.19 437.21 C 568.72 433.77 570.14 430.29 571.44 426.76 Z" />
<path fill="#f691c2" opacity="1.00" d=" M 497.64 500.00 C 506.11 488.96 520.04 483.64 533.72 486.57 C 540.78 488.14 547.78 489.95 554.65 492.25 C 555.02 492.39 555.77 492.67 556.15 492.81 C 563.00 496.00 570.37 497.76 577.56 500.00 L 497.64 500.00 Z" />
</g>
<g id="#b12d43ff">
<path fill="#b12d43" opacity="1.00" d=" M 500.35 357.84 C 506.15 360.34 507.95 366.53 505.84 372.20 L 506.65 371.80 C 506.04 373.57 505.42 375.33 504.78 377.09 L 505.60 377.58 L 506.39 378.05 C 502.55 380.60 498.69 383.14 495.19 386.15 C 496.02 388.34 496.78 390.55 497.48 392.78 C 501.34 391.74 507.15 390.22 509.12 395.00 C 508.11 396.40 506.78 397.50 505.43 398.55 C 505.58 399.69 505.73 400.84 505.90 401.99 C 503.21 401.71 500.56 401.15 497.99 400.34 C 499.51 413.71 517.47 420.68 529.15 419.20 L 529.96 418.94 C 529.17 420.18 528.24 421.43 526.77 421.90 L 527.45 421.18 C 516.15 420.46 503.02 417.47 495.71 408.28 C 491.38 410.16 486.60 410.18 482.08 409.06 C 482.04 405.71 482.03 402.35 481.84 399.01 L 480.97 398.84 C 479.28 399.39 477.70 400.18 476.11 400.97 L 475.28 401.24 C 477.56 398.84 479.73 396.31 481.44 393.46 L 481.84 392.80 C 480.55 400.39 487.97 407.10 494.76 401.85 C 499.03 394.16 493.85 382.59 483.83 386.70 L 483.98 385.90 C 486.85 385.19 489.80 384.92 492.75 384.71 C 493.06 383.71 493.37 382.72 493.68 381.73 C 493.91 382.03 494.35 382.64 494.58 382.94 C 497.36 374.81 499.59 366.43 500.35 357.84 Z" />
</g>
<g id="#eb4753ff">
<path fill="#eb4753" opacity="1.00" d=" M 506.39 378.05 C 515.59 373.99 526.22 370.65 536.15 374.08 C 535.50 383.80 532.37 393.11 527.86 401.69 C 528.96 401.11 530.07 400.53 531.18 399.96 C 531.86 406.47 530.30 412.85 529.15 419.20 C 517.47 420.68 499.51 413.71 497.99 400.34 C 500.56 401.15 503.21 401.71 505.90 401.99 C 505.73 400.84 505.58 399.69 505.43 398.55 C 506.78 397.50 508.11 396.40 509.12 395.00 C 507.15 390.22 501.34 391.74 497.48 392.78 C 496.78 390.55 496.02 388.34 495.19 386.15 C 498.69 383.14 502.55 380.60 506.39 378.05 Z" />
<path fill="#eb4753" opacity="1.00" d=" M 483.83 386.70 C 493.85 382.59 499.03 394.16 494.76 401.85 C 487.97 407.10 480.55 400.39 481.84 392.80 C 482.06 391.92 482.28 391.04 482.50 390.16 C 482.72 388.89 483.16 387.74 483.83 386.70 Z" />
<path fill="#eb4753" opacity="1.00" d=" M 533.06 407.13 C 533.36 407.36 533.98 407.83 534.28 408.06 C 534.87 409.13 535.40 410.22 535.93 411.33 C 538.05 419.02 535.97 427.05 535.86 434.87 C 534.87 435.83 533.90 436.81 532.95 437.82 C 526.71 442.52 518.45 439.44 511.94 443.05 C 510.88 442.85 509.83 442.65 508.78 442.46 C 505.11 434.01 503.45 424.92 501.07 416.06 C 509.00 419.91 517.72 424.12 526.77 421.90 C 528.24 421.43 529.17 420.18 529.96 418.94 C 531.84 415.27 532.31 411.12 533.06 407.13 Z" />
</g>
<g id="#df76a3ff">
<path fill="#df76a3" opacity="1.00" d=" M 476.11 400.97 C 477.70 400.18 479.28 399.39 480.97 398.84 C 481.79 411.09 479.71 423.68 473.47 434.39 C 461.77 455.49 449.14 476.50 442.85 500.00 L 403.62 500.00 C 429.95 475.66 444.32 441.37 454.93 407.80 C 462.19 406.83 470.81 406.79 476.11 400.97 Z" />
<path fill="#df76a3" opacity="1.00" d=" M 474.38 435.83 C 474.87 434.86 475.36 433.89 475.84 432.92 C 473.68 447.88 477.24 461.92 486.39 474.09 C 479.74 473.83 472.16 466.98 473.06 459.79 L 472.35 460.31 C 473.53 452.26 475.44 443.91 474.38 435.83 Z" />
</g>
</svg>
